<svg xmlns="http://www.w3.org/2000/svg" x="0px" y="0px"
width="50" height="50"
viewBox="0 0 172 172"
style=" fill:#000000;"><g fill="none" fill-rule="nonzero" stroke="none" stroke-width="1" stroke-linecap="butt" stroke-linejoin="miter" stroke-miterlimit="10" stroke-dasharray="" stroke-dashoffset="0" font-family="none" font-weight="none" font-size="none" text-anchor="none" style="mix-blend-mode: normal"><path d="M0,172v-172h172v172z" fill="none"></path><g><path d="M132.44,20.64c-0.94993,0 -1.72,0.77007 -1.72,1.72c0,0.94993 0.77007,1.72 1.72,1.72c0.94993,0 1.72,-0.77007 1.72,-1.72c0,-0.94993 -0.77007,-1.72 -1.72,-1.72z" fill="#f1bc19"></path><path d="M86,22.36c-35.1474,0 -63.64,28.4926 -63.64,63.64c0,35.1474 28.4926,63.64 63.64,63.64c35.1474,0 63.64,-28.4926 63.64,-63.64c0,-35.1474 -28.4926,-63.64 -63.64,-63.64z" fill="#ffffff"></path><path d="M142.76,18.92c-3.79972,0 -6.88,3.08028 -6.88,6.88c0,3.79972 3.08028,6.88 6.88,6.88c3.79972,0 6.88,-3.08028 6.88,-6.88c0,-3.79972 -3.08028,-6.88 -6.88,-6.88z" fill="#f1bc19"></path><path d="M149.64,37.84c-1.89986,0 -3.44,1.54014 -3.44,3.44c0,1.89986 1.54014,3.44 3.44,3.44c1.89986,0 3.44,-1.54014 3.44,-3.44c0,-1.89986 -1.54014,-3.44 -3.44,-3.44z" fill="#e74c3c"></path><path d="M139.32,127.28c-1.89986,0 -3.44,1.54014 -3.44,3.44c0,1.89986 1.54014,3.44 3.44,3.44c1.89986,0 3.44,-1.54014 3.44,-3.44c0,-1.89986 -1.54014,-3.44 -3.44,-3.44zM25.8,101.48c-3.79972,0 -6.88,3.08028 -6.88,6.88c0,3.79972 3.08028,6.88 6.88,6.88c3.79972,0 6.88,-3.08028 6.88,-6.88c0,-3.79972 -3.08028,-6.88 -6.88,-6.88z" fill="#fbcd59"></path><path d="M43,146.2c-1.89986,0 -3.44,1.54014 -3.44,3.44c0,1.89986 1.54014,3.44 3.44,3.44c1.89986,0 3.44,-1.54014 3.44,-3.44c0,-1.89986 -1.54014,-3.44 -3.44,-3.44z" fill="#e74c3c"></path><path d="M31.82,84.28c-2.37482,0 -4.3,1.92518 -4.3,4.3c0,2.37482 1.92518,4.3 4.3,4.3c2.37482,0 4.3,-1.92518 4.3,-4.3c0,-2.37482 -1.92518,-4.3 -4.3,-4.3zM136.74,55.04c-1.42489,0 -2.58,1.15511 -2.58,2.58c0,1.42489 1.15511,2.58 2.58,2.58c1.42489,0 2.58,-1.15511 2.58,-2.58c0,-1.42489 -1.15511,-2.58 -2.58,-2.58z" fill="#ffffff"></path><path d="M48.05164,77.916c-1.17304,0 -2.12764,-0.9546 -2.12764,-2.12764v-8.815c0,-1.17476 0.9546,-2.12764 2.12764,-2.12764h4.06436v13.072h-4.06436z" fill="#bebacb"></path><path d="M50.912,66.048v10.664h-2.86036c-0.50912,0 -0.92364,-0.41452 -0.92364,-0.92536v-8.815c0,-0.50912 0.41452,-0.92536 0.92364,-0.92536h2.86036M53.32,63.64h-5.26836c-1.8404,0 -3.33164,1.49296 -3.33164,3.33336v8.815c0,1.83868 1.49124,3.33164 3.33164,3.33164h5.26836v-15.48z" fill="#472b29"></path><path d="M118.164,77.916v-13.072h4.06264c1.17476,0 2.12764,0.9546 2.12764,2.12764v8.815c0,1.17476 -0.9546,2.12764 -2.12764,2.12764h-4.06264z" fill="#bebacb"></path><path d="M122.22664,66.048c0.50912,0 0.92536,0.41452 0.92536,0.92536v8.815c0,0.50912 -0.41452,0.92536 -0.92536,0.92536h-2.85864v-10.664h2.85864M122.22664,63.64h-5.26664v15.48h5.26664c1.84212,0 3.33336,-1.49296 3.33336,-3.33164v-8.815c0,-1.8404 -1.49124,-3.33336 -3.33336,-3.33336z" fill="#472b29"></path><path d="M59.48276,124.356c-0.83764,0 -1.51876,-0.68112 -1.51876,-1.51876v-9.83324h9.632v9.83324c0,0.83764 -0.68112,1.51876 -1.51876,1.51876z" fill="#bebacb"></path><path d="M66.392,114.208v8.62924c0,0.17372 -0.14104,0.31648 -0.31476,0.31648h-6.59276c-0.17372,0 -0.31476,-0.14276 -0.31476,-0.31648v-8.62924h7.22228M68.8,111.8h-12.04v11.03724c0,1.50328 1.21948,2.72276 2.72276,2.72276h6.59276c1.505,0 2.72448,-1.21948 2.72448,-2.72276v-11.03724z" fill="#472b29"></path><path d="M104.20276,124.356c-0.83764,0 -1.51876,-0.68112 -1.51876,-1.51876v-9.83324h9.632v9.83324c0,0.83764 -0.68112,1.51876 -1.51876,1.51876z" fill="#bebacb"></path><path d="M111.112,114.208v8.62924c0,0.17372 -0.14104,0.31648 -0.31476,0.31648h-6.59276c-0.17372,0 -0.31476,-0.14276 -0.31476,-0.31648v-8.62924h7.22228M113.52,111.8h-12.04v11.03724c0,1.50328 1.21948,2.72276 2.72276,2.72276h6.59276c1.505,0 2.72448,-1.21948 2.72448,-2.72276v-11.03724z" fill="#472b29"></path><path d="M55.98256,114.036c-2.7004,0 -4.89856,-2.25492 -4.89856,-5.02584l1.80772,-58.02936c0,-5.6502 4.4634,-10.21508 9.94676,-10.21508h44.60304c5.48336,0 9.94504,4.56488 9.94504,10.17896l1.81116,58.10332c-0.00172,2.7348 -2.19816,4.988 -4.90028,4.988z" fill="#f9e65c"></path><path d="M107.44152,41.968c4.82116,0 8.74276,4.02652 8.74448,9.04892l1.806,57.99324c0,2.107 -1.65808,3.82184 -3.69456,3.82184h-58.31488c-2.03648,0 -3.69456,-1.71484 -3.69628,-3.74788l1.80944,-58.14288c0,-4.94844 3.9216,-8.97496 8.74276,-8.97496h44.60304M107.44152,39.56h-44.60304c-6.1576,0 -11.15076,5.09636 -11.15076,11.38296l-1.80772,58.0672c0,3.44 2.73308,6.22984 6.10256,6.22984h58.31488c3.36948,0 6.10256,-2.78984 6.10256,-6.22984l-1.80772,-58.0672c0,-6.2866 -4.99316,-11.38296 -11.15076,-11.38296z" fill="#472b29"></path><path d="M117.4072,86.28724l-7.955,3.15276h-48.44552l-8.05132,-3.27832l1.05264,-32.84168l62.25368,-0.07224z" fill="#78cdd4"></path><path d="M109.73428,91.16l-48.77232,-0.05848l-8.815,-3.44l0.62608,-1.60304l8.66364,3.38152h47.95532l8.09776,-3.37464l0.66048,1.58928zM53.32,51.55872h63.64v1.72h-63.64z" fill="#472b29"></path><path d="M76.54,55.9c-1.89716,0 -3.44,-1.54284 -3.44,-3.44c0,-1.89716 1.54284,-3.44 3.44,-3.44h17.2c1.89716,0 3.44,1.54284 3.44,3.44c0,1.89716 -1.54284,3.44 -3.44,3.44z" fill="#ea5167"></path><path d="M93.74,49.88c1.42244,0 2.58,1.15756 2.58,2.58c0,1.42244 -1.15756,2.58 -2.58,2.58h-17.2c-1.42244,0 -2.58,-1.15756 -2.58,-2.58c0,-1.42244 1.15756,-2.58 2.58,-2.58h17.2M93.74,48.16h-17.2c-2.37532,0 -4.3,1.92468 -4.3,4.3c0,2.37532 1.92468,4.3 4.3,4.3h17.2c2.37532,0 4.3,-1.92468 4.3,-4.3c0,-2.37532 -1.92468,-4.3 -4.3,-4.3z" fill="#472b29"></path><path d="M59.39332,107.5c-0.97868,0 -1.77332,-0.79636 -1.77332,-1.77332v-3.33336c0,-0.97696 0.79464,-1.77332 1.77332,-1.77332l8.3764,1.7028c2.14484,0.4902 2.78124,1.87996 2.65224,3.01172c-0.11696,1.04404 -0.94256,2.16548 -2.48196,2.16548z" fill="#88cdd7"></path><path d="M59.26604,101.4886l8.2904,1.6684c1.37084,0.31304 2.1242,1.09048 2.0124,2.0812c-0.07912,0.69832 -0.61232,1.4018 -1.62884,1.4018h-8.54668c-0.50396,0 -0.91332,-0.40936 -0.91332,-0.91332v-3.33336c0,-0.45924 0.34228,-0.84108 0.78604,-0.90472M59.39332,99.76c-1.4534,0 -2.63332,1.17992 -2.63332,2.63332v3.33336c0,1.4534 1.17992,2.63332 2.63332,2.63332h8.54668c3.90612,0 5.01724,-5.73276 0,-6.88l-8.54668,-1.72z" fill="#472b29"></path><g><path d="M102.34,107.5c-1.5394,0 -2.365,-1.12144 -2.48196,-2.16548c-0.129,-1.13348 0.5074,-2.52152 2.6746,-3.01688l8.52432,-1.71484c0.8084,0.0172 1.60476,0.81356 1.60476,1.79052v3.33336c0,0.97696 -0.79636,1.77332 -1.77332,1.77332z" fill="#88cdd7"></path><path d="M111.01396,101.4886c0.44376,0.06364 0.78604,0.44548 0.78604,0.90472v3.33336c0,0.50396 -0.40936,0.91332 -0.91332,0.91332h-8.54668c-1.01652,0 -1.54972,-0.70348 -1.62884,-1.4018c-0.1118,-0.99072 0.63984,-1.76816 1.96768,-2.0726l8.33512,-1.677M110.88668,99.76l-8.54668,1.72c-5.01724,1.14724 -3.90612,6.88 0,6.88h8.54668c1.4534,0 2.63332,-1.17992 2.63332,-2.63332v-3.33336c0,-1.4534 -1.17992,-2.63332 -2.63332,-2.63332z" fill="#472b29"></path></g><g fill="#472b29"><path d="M109.22,91.16h-1.72c0,-3.3196 -2.7004,-6.02 -6.02,-6.02c-3.3196,0 -6.02,2.7004 -6.02,6.02h-1.72c0,-4.26732 3.47268,-7.74 7.74,-7.74c4.26732,0 7.74,3.47268 7.74,7.74z"></path></g><g fill="#472b29"><path d="M85.14,91.16c-0.47472,0 -0.86,-0.38528 -0.86,-0.86v-18.92c0,-0.47472 0.38528,-0.86 0.86,-0.86c0.47472,0 0.86,0.38528 0.86,0.86v18.92c0,0.47472 -0.38528,0.86 -0.86,0.86z"></path></g><g fill="#472b29"><path d="M85.14,68.8c-0.47472,0 -0.86,-0.38528 -0.86,-0.86v-5.16c0,-0.47472 0.38528,-0.86 0.86,-0.86c0.47472,0 0.86,0.38528 0.86,0.86v5.16c0,0.47472 -0.38528,0.86 -0.86,0.86z"></path></g><g fill="#472b29"><path d="M73.1,125.56h-20.64c-0.47472,0 -0.86,-0.38528 -0.86,-0.86c0,-0.47472 0.38528,-0.86 0.86,-0.86h20.64c0.47472,0 0.86,0.38528 0.86,0.86c0,0.47472 -0.38528,0.86 -0.86,0.86z"></path></g><g fill="#472b29"><path d="M83.42,125.56h-5.16c-0.47472,0 -0.86,-0.38528 -0.86,-0.86c0,-0.47472 0.38528,-0.86 0.86,-0.86h5.16c0.47472,0 0.86,0.38528 0.86,0.86c0,0.47472 -0.38528,0.86 -0.86,0.86z"></path></g><g fill="#472b29"><path d="M117.82,125.56h-29.24c-0.47472,0 -0.86,-0.38528 -0.86,-0.86c0,-0.47472 0.38528,-0.86 0.86,-0.86h29.24c0.47472,0 0.86,0.38528 0.86,0.86c0,0.47472 -0.38528,0.86 -0.86,0.86z"></path></g><g fill="#472b29"><path d="M74.82,108.36c-0.47472,0 -0.86,-0.38528 -0.86,-0.86v-8.6c0,-0.47472 0.38528,-0.86 0.86,-0.86c0.47472,0 0.86,0.38528 0.86,0.86v8.6c0,0.47472 -0.38528,0.86 -0.86,0.86z"></path></g><g fill="#472b29"><path d="M78.26,108.36c-0.47472,0 -0.86,-0.38528 -0.86,-0.86v-8.6c0,-0.47472 0.38528,-0.86 0.86,-0.86c0.47472,0 0.86,0.38528 0.86,0.86v8.6c0,0.47472 -0.38528,0.86 -0.86,0.86z"></path></g><g fill="#472b29"><path d="M81.7,108.36c-0.47472,0 -0.86,-0.38528 -0.86,-0.86v-8.6c0,-0.47472 0.38528,-0.86 0.86,-0.86c0.47472,0 0.86,0.38528 0.86,0.86v8.6c0,0.47472 -0.38528,0.86 -0.86,0.86z"></path></g><g fill="#472b29"><path d="M85.14,108.36c-0.47472,0 -0.86,-0.38528 -0.86,-0.86v-8.6c0,-0.47472 0.38528,-0.86 0.86,-0.86c0.47472,0 0.86,0.38528 0.86,0.86v8.6c0,0.47472 -0.38528,0.86 -0.86,0.86z"></path></g><g fill="#472b29"><path d="M88.58,108.36c-0.47472,0 -0.86,-0.38528 -0.86,-0.86v-8.6c0,-0.47472 0.38528,-0.86 0.86,-0.86c0.47472,0 0.86,0.38528 0.86,0.86v8.6c0,0.47472 -0.38528,0.86 -0.86,0.86z"></path></g><g fill="#472b29"><path d="M92.02,108.36c-0.47472,0 -0.86,-0.38528 -0.86,-0.86v-8.6c0,-0.47472 0.38528,-0.86 0.86,-0.86c0.47472,0 0.86,0.38528 0.86,0.86v8.6c0,0.47472 -0.38528,0.86 -0.86,0.86z"></path></g><g fill="#472b29"><path d="M95.46,108.36c-0.47472,0 -0.86,-0.38528 -0.86,-0.86v-8.6c0,-0.47472 0.38528,-0.86 0.86,-0.86c0.47472,0 0.86,0.38528 0.86,0.86v8.6c0,0.47472 -0.38528,0.86 -0.86,0.86z"></path></g><g fill="#472b29"><path d="M85.14,60.2c-0.47472,0 -0.86,-0.38528 -0.86,-0.86v-3.44c0,-0.47472 0.38528,-0.86 0.86,-0.86c0.47472,0 0.86,0.38528 0.86,0.86v3.44c0,0.47472 -0.38528,0.86 -0.86,0.86z"></path></g></g></g></svg>