<svg xmlns="http://www.w3.org/2000/svg" x="0px" y="0px"
width="50" height="50"
viewBox="0 0 172 172"
style=" fill:#000000;"><g fill="none" fill-rule="nonzero" stroke="none" stroke-width="1" stroke-linecap="butt" stroke-linejoin="miter" stroke-miterlimit="10" stroke-dasharray="" stroke-dashoffset="0" font-family="none" font-weight="none" font-size="none" text-anchor="none" style="mix-blend-mode: normal"><path d="M0,172v-172h172v172z" fill="none"></path><g><path d="M22.36,46.44c-1.89986,0 -3.44,1.54014 -3.44,3.44c0,1.89986 1.54014,3.44 3.44,3.44c1.89986,0 3.44,-1.54014 3.44,-3.44c0,-1.89986 -1.54014,-3.44 -3.44,-3.44z" fill="#ffc000"></path><path d="M132.44,20.64c-0.94993,0 -1.72,0.77007 -1.72,1.72c0,0.94993 0.77007,1.72 1.72,1.72c0.94993,0 1.72,-0.77007 1.72,-1.72c0,-0.94993 -0.77007,-1.72 -1.72,-1.72z" fill="#ffc000"></path><path d="M86,22.36c-35.1474,0 -63.64,28.4926 -63.64,63.64c0,35.1474 28.4926,63.64 63.64,63.64c35.1474,0 63.64,-28.4926 63.64,-63.64c0,-35.1474 -28.4926,-63.64 -63.64,-63.64z" fill="#ffffff"></path><path d="M142.76,18.92c-3.79972,0 -6.88,3.08028 -6.88,6.88c0,3.79972 3.08028,6.88 6.88,6.88c3.79972,0 6.88,-3.08028 6.88,-6.88c0,-3.79972 -3.08028,-6.88 -6.88,-6.88z" fill="#ffc000"></path><path d="M149.64,37.84c-1.89986,0 -3.44,1.54014 -3.44,3.44c0,1.89986 1.54014,3.44 3.44,3.44c1.89986,0 3.44,-1.54014 3.44,-3.44c0,-1.89986 -1.54014,-3.44 -3.44,-3.44z" fill="#ffc000"></path><path d="M139.32,127.28c-1.89986,0 -3.44,1.54014 -3.44,3.44c0,1.89986 1.54014,3.44 3.44,3.44c1.89986,0 3.44,-1.54014 3.44,-3.44c0,-1.89986 -1.54014,-3.44 -3.44,-3.44zM25.8,101.48c-3.79972,0 -6.88,3.08028 -6.88,6.88c0,3.79972 3.08028,6.88 6.88,6.88c3.79972,0 6.88,-3.08028 6.88,-6.88c0,-3.79972 -3.08028,-6.88 -6.88,-6.88z" fill="#ff0000"></path><path d="M43,146.2c-1.89986,0 -3.44,1.54014 -3.44,3.44c0,1.89986 1.54014,3.44 3.44,3.44c1.89986,0 3.44,-1.54014 3.44,-3.44c0,-1.89986 -1.54014,-3.44 -3.44,-3.44z" fill="#ffc000"></path><path d="M31.82,87.72c-2.37482,0 -4.3,1.92518 -4.3,4.3c0,2.37482 1.92518,4.3 4.3,4.3c2.37482,0 4.3,-1.92518 4.3,-4.3c0,-2.37482 -1.92518,-4.3 -4.3,-4.3z" fill="#ffffff"></path><path d="M36.12,113.52c-0.94993,0 -1.72,0.77007 -1.72,1.72c0,0.94993 0.77007,1.72 1.72,1.72c0.94993,0 1.72,-0.77007 1.72,-1.72c0,-0.94993 -0.77007,-1.72 -1.72,-1.72z" fill="#ffc000"></path><path d="M137.6,56.76c-0.94993,0 -1.72,0.77007 -1.72,1.72c0,0.94993 0.77007,1.72 1.72,1.72c0.94993,0 1.72,-0.77007 1.72,-1.72c0,-0.94993 -0.77007,-1.72 -1.72,-1.72z" fill="#ffffff"></path><g><path d="M111.8,48.16c6.6392,0 12.04,5.4008 12.04,12.04v51.6c0,6.6392 -5.4008,12.04 -12.04,12.04h-51.6c-6.6392,0 -12.04,-5.4008 -12.04,-12.04v-51.6c0,-6.6392 5.4008,-12.04 12.04,-12.04h51.6" fill="#ffc000"></path><path d="M111.8,48.848c6.25908,0 11.352,5.09292 11.352,11.352v51.6c0,6.25908 -5.09292,11.352 -11.352,11.352h-51.6c-6.25908,0 -11.352,-5.09292 -11.352,-11.352v-51.6c0,-6.25908 5.09292,-11.352 11.352,-11.352h51.6M111.8,46.44h-51.6c-7.59896,0 -13.76,6.16104 -13.76,13.76v51.6c0,7.59896 6.16104,13.76 13.76,13.76h51.6c7.59896,0 13.76,-6.16104 13.76,-13.76v-51.6c0,-7.59896 -6.16104,-13.76 -13.76,-13.76z" fill="#000000"></path><path d="M108.36,118.68h-44.72c-5.69148,0 -10.32,-4.62852 -10.32,-10.32v-44.72c0,-5.69148 4.62852,-10.32 10.32,-10.32h44.72c5.69148,0 10.32,4.62852 10.32,10.32v44.72c0,5.69148 -4.62852,10.32 -10.32,10.32z" fill="#fdfcee"></path><path d="M108.36,118.68h-44.72c-5.69148,0 -10.32,-4.62852 -10.32,-10.32v-44.72c0,-5.69148 4.62852,-10.32 10.32,-10.32h42.355c0.35604,0 0.645,0.28896 0.645,0.645c0,0.35604 -0.28896,0.645 -0.645,0.645h-42.355c-4.9794,0 -9.03,4.0506 -9.03,9.03v44.72c0,4.9794 4.0506,9.03 9.03,9.03h44.72c4.9794,0 9.03,-4.0506 9.03,-9.03v-25.155c0,-0.35604 0.28896,-0.645 0.645,-0.645c0.35604,0 0.645,0.28896 0.645,0.645v25.155c0,5.69148 -4.62852,10.32 -10.32,10.32zM118.035,72.24c-0.35604,0 -0.645,-0.28896 -0.645,-0.645v-2.19816c0,-0.35604 0.28896,-0.645 0.645,-0.645c0.35604,0 0.645,0.28896 0.645,0.645v2.19816c0,0.35604 -0.28896,0.645 -0.645,0.645z" fill="#000000"></path><path d="M118.035,80.84c-0.35604,0 -0.645,-0.28896 -0.645,-0.645v-5.59c0,-0.35604 0.28896,-0.645 0.645,-0.645c0.35604,0 0.645,0.28896 0.645,0.645v5.59c0,0.35604 -0.28896,0.645 -0.645,0.645z" fill="#000000"></path></g><g><path d="M99.22164,67.72672c-0.68972,0 -1.29,0.20468 -1.72,0.63296l-24.72672,24.74736c-0.79636,0.7998 -2.47336,5.23224 -3.69628,8.46584c-0.55384,1.46372 -1.02684,2.70728 -1.30204,3.32476c-0.09632,0.215 -0.0516,0.44892 0.11352,0.61576l0.2666,0.2666c0.20984,0.21156 0.5246,0.27348 0.80496,0.14792c0.71724,-0.32336 2.04336,-0.82732 3.58276,-1.4104c3.28004,-1.24528 7.32032,-2.7778 8.08744,-3.54492l24.72844,-24.7508c1.27796,-1.27968 0.55556,-4.08672 -1.60992,-6.25564c-1.43964,-1.43792 -3.16136,-2.23944 -4.52876,-2.23944z" fill="#ffc000"></path><path d="M72.77492,93.10704c-0.79636,0.7998 -2.47336,5.23224 -3.69628,8.46584c-0.55384,1.46372 -1.02684,2.70728 -1.30204,3.32476c-0.09632,0.215 -0.0516,0.44892 0.11352,0.61576l0.2666,0.2666c0.20984,0.21156 0.5246,0.27348 0.80496,0.14792c0.71724,-0.32336 2.04336,-0.82732 3.58276,-1.4104c3.28004,-1.24528 7.32032,-2.7778 8.08744,-3.54492l0.00516,-0.00516z" fill="#fdfcee"></path><path d="M69.11132,101.48516c-0.01032,0.02924 -0.02236,0.0602 -0.0344,0.08944c-0.55384,1.46372 -1.02684,2.70728 -1.30204,3.32476c-0.09632,0.215 -0.0516,0.44892 0.11352,0.61576l0.2666,0.2666c0.20984,0.21156 0.5246,0.27348 0.80496,0.14792c0.6708,-0.30272 1.8834,-0.7654 3.29552,-1.30032z" fill="#ff0000"></path><path d="M92.04421,73.93471l3.4151,-3.41522l7.84721,7.84694l-3.4151,3.41522z" fill="#0f3272"></path><path d="M103.26192,78.32192l2.09668,-2.0984c1.27796,-1.27968 0.55556,-4.08672 -1.60992,-6.25564c-1.43792,-1.43964 -3.15964,-2.24116 -4.52704,-2.24116c-0.68972,0 -1.29,0.20468 -1.72,0.63296l-2.10012,2.10184z" fill="#fcb9b9"></path></g><g fill="#000000"><path d="M99.2268,68.37v0c1.24184,0 2.80016,0.78776 4.06608,2.05368c2.07776,2.0812 2.50948,4.44276 1.60992,5.34404l-24.73016,24.7508c-0.66908,0.66908 -4.97596,2.30308 -7.826,3.38496l-0.129,0.04816c-1.505,0.57104 -2.8036,1.06468 -3.60684,1.37256l-0.22188,-0.22188c0.29756,-0.67768 0.78088,-1.95392 1.29172,-3.3024c1.0664,-2.81908 2.85176,-7.53704 3.55008,-8.23708l24.72672,-24.74564c0.29756,-0.29756 0.72412,-0.4472 1.26936,-0.4472M99.2268,67.08c-0.86172,0 -1.62368,0.2666 -2.18096,0.82388l-24.72672,24.74736c-0.82732,0.82904 -2.17408,4.27592 -3.8442,8.69288c-0.54868,1.44824 -1.0148,2.67976 -1.28828,3.29036c-0.20468,0.4558 -0.10836,0.97868 0.24424,1.333l0.26832,0.26832c0.26316,0.26488 0.6106,0.4042 0.96492,0.4042c0.1892,0 0.38184,-0.04128 0.56244,-0.12212c0.70176,-0.3182 2.03476,-0.82216 3.5776,-1.40868c4.343,-1.64776 7.482,-2.87756 8.2818,-3.67908l24.73016,-24.74908c1.5566,-1.55832 0.84968,-4.70592 -1.60992,-7.16724c-1.57724,-1.57896 -3.43828,-2.4338 -4.9794,-2.4338z"></path><path d="M72.46958,93.40395l0.6081,-0.60812l7.86181,7.86153l-0.6081,0.60812z"></path><path d="M68.64754,101.63056l0.6081,-0.60812l3.43954,3.43942l-0.6081,0.60812z"></path><path d="M91.74025,74.23862l0.6081,-0.60812l7.84721,7.84694l-0.6081,0.60812z"></path><path d="M95.15445,70.82442l0.6081,-0.60812l7.84721,7.84694l-0.6081,0.60812z"></path><path d="M93.9378,75.76428l-0.3956,-0.16856l1.935,-4.515l0.3956,0.16856zM95.4428,77.05428l-0.3956,-0.16856l1.935,-4.515l0.3956,0.16856zM96.9478,78.34428l-0.3956,-0.16856l1.935,-4.515l0.3956,0.16856zM98.28768,80.01784l-0.39388,-0.16856l2.0984,-4.89856l0.3956,0.16856zM99.72732,81.46092l-0.3956,-0.16856l2.16548,-5.05164l0.3956,0.16856z"></path></g></g></g></svg>