<svg xmlns="http://www.w3.org/2000/svg" x="0px" y="0px"
width="50" height="50"
viewBox="0 0 172 172"
style=" fill:#000000;"><g fill="none" fill-rule="nonzero" stroke="none" stroke-width="1" stroke-linecap="butt" stroke-linejoin="miter" stroke-miterlimit="10" stroke-dasharray="" stroke-dashoffset="0" font-family="none" font-weight="none" font-size="none" text-anchor="none" style="mix-blend-mode: normal"><path d="M0,172v-172h172v172z" fill="none"></path><g><circle cx="77" cy="13" transform="scale(1.72,1.72)" r="1" fill="#f1bc19"></circle><circle cx="50" cy="50" transform="scale(1.72,1.72)" r="37" fill="#ffffff"></circle><circle cx="83" cy="15" transform="scale(1.72,1.72)" r="4" fill="#f1bc19"></circle><circle cx="87" cy="24" transform="scale(1.72,1.72)" r="2" fill="#ff0000"></circle><circle cx="81" cy="76" transform="scale(1.72,1.72)" r="2" fill="#ffca00"></circle><circle cx="15" cy="63" transform="scale(1.72,1.72)" r="4" fill="#ffca00"></circle><circle cx="25" cy="87" transform="scale(1.72,1.72)" r="2" fill="#ff0000"></circle><circle cx="19.5" cy="43.5" transform="scale(1.72,1.72)" r="2.5" fill="#ffffff"></circle><circle cx="79.5" cy="33.5" transform="scale(1.72,1.72)" r="1.5" fill="#ffffff"></circle><g><path d="M129.07568,91.50744c-0.49364,-2.62988 -1.4792,-4.10908 -4.10908,-4.93124c-0.16512,0 -0.32852,-0.16512 -0.49364,-0.16512c-0.16512,0 -0.49364,-0.16512 -0.65704,-0.32852c-1.4792,-0.65704 -10.51952,-3.94396 -10.51952,-3.94396c-0.65704,-0.16512 -1.15068,-0.65704 -1.4792,-1.31408c-0.49364,-0.98556 -0.32852,-3.45204 -0.32852,-3.45204c0,0 -3.78056,1.31408 -6.08192,1.64432c-2.30136,0.16512 -7.23088,-2.79328 -7.23088,-2.79328c0,0 -0.16512,3.61544 -0.32852,4.4376c-0.16512,0.65704 -0.82216,1.15068 -1.4792,1.31408l-8.54668,3.12352c-0.98556,0.32852 -1.80772,0.65704 -2.62988,1.15068c-2.13624,1.31408 -3.28692,3.28692 -3.78056,5.09464c0,0 -0.49364,3.94396 -0.49364,4.10908c0,0.49364 -0.16512,-0.49364 -0.16512,0.16512c9.36884,6.41044 16.92824,8.05304 29.74912,7.56112c5.9168,-0.32852 14.62688,-3.12352 19.2296,-5.42316c-0.16168,-4.93296 -0.65532,-6.24876 -0.65532,-6.24876z" fill="#dda67a"></path><path d="M125.13172,86.74132c-0.16512,0 -0.32852,-0.16512 -0.49364,-0.16512c-0.16512,0 -0.49364,-0.16512 -0.65704,-0.32852c-0.98556,-0.32852 -4.76612,-1.80772 -7.396,-2.79328h-0.16512c-2.9584,1.4792 -7.396,3.94396 -11.33996,3.94396c-3.94396,0 -7.88964,-2.13624 -11.33996,-3.94396l-0.32852,0.16512l-5.42316,1.97284c-0.98556,0.32852 -1.80772,0.65704 -2.62988,1.15068c-2.13624,1.31408 -3.28692,3.28692 -3.78056,5.09464c0,0 -0.49364,3.94396 -0.49364,4.10908c0,0.49364 -0.16512,4.93124 -0.16512,5.58828c9.36884,6.41044 16.92824,8.05304 29.74912,7.56112c5.9168,-0.32852 14.62688,-3.12352 19.2296,-5.42316c-0.16512,-5.09464 -0.65704,-11.8336 -0.65704,-11.8336c-0.65704,-2.79672 -1.64432,-4.43932 -4.10908,-5.09808z" fill="#ee3e54"></path><path d="M119.87196,59.45868c-0.16512,0 -0.32852,0 -0.49364,0c-1.15068,0 -1.4792,0.32852 -1.4792,-0.32852c0.16512,-1.31408 -0.16512,-6.41044 -0.16512,-6.73896c0,-5.42316 -5.58828,-9.69736 -12.65576,-10.02588v0h-0.16512h-0.16512v0c-7.06748,0.16512 -12.65576,4.60272 -12.65576,10.02588c0,0.32852 -0.16512,5.42316 -0.16512,6.73896c0,0.65704 -0.32852,0.32852 -1.4792,0.32852c-0.16512,0 -0.32852,0 -0.49364,0c-1.31408,0.16512 -2.30136,0.82216 -2.46476,1.97284c0.16512,0.16512 0.65704,4.4376 1.64432,6.24532c0.49364,0.98556 1.31408,1.15068 2.13624,1.80772c0.49364,0.32852 0.49364,0.65704 0.65704,1.31408c0.49364,1.97284 1.80772,3.61544 3.28692,4.93124c0.65704,0.65704 5.42316,5.75168 9.53224,5.42316c4.10908,-0.16512 8.71008,-4.76612 9.53224,-5.42316c1.4792,-1.31408 2.79328,-2.9584 3.28692,-4.93124c0.16512,-0.49364 0.16512,-0.98556 0.65704,-1.31408c0.82216,-0.65704 1.64432,-0.82216 2.13624,-1.80772c0.98556,-1.80772 1.4792,-6.08192 1.64432,-6.24532c0.17028,-0.98728 -0.81528,-1.80772 -2.13108,-1.97284z" fill="#dda67a"></path><path d="M105.24508,68.00536c0.82216,0 1.64432,-0.32852 2.13624,-0.98556v-0.16512v0h-0.16512c-0.49364,0.49364 -1.15068,0.82216 -1.97284,0.82216c-0.82216,0 -1.4792,-0.32852 -1.97284,-0.82216c0,0 0,0 -0.16512,0c0,0 0,0 -0.16512,0v0.16512c0.66048,0.65704 1.48264,0.98556 2.3048,0.98556zM102.6152,56.99392l0.49364,-0.98556c-2.13624,-0.49364 -4.76612,-0.49364 -6.90236,0.16512l0.65704,0.98556c1.80772,-0.65876 3.94396,-0.65876 5.75168,-0.16512zM113.62664,56.99392l0.49364,-0.98556c-2.13624,-0.49364 -4.76612,-0.49364 -6.90236,0.16512l0.65704,0.98556c1.80772,-0.65876 3.94396,-0.65876 5.75168,-0.16512zM99.32828,58.308c-0.49364,0 -0.98556,0.32852 -1.31408,0.82216h0.16512c0.49364,0 0.82216,0.32852 0.82216,0.82216c0,0.49364 -0.32852,0.82216 -0.82216,0.82216c-0.16512,0 -0.32852,0 -0.32852,-0.16512c0.16512,0.82216 0.82216,1.31408 1.4792,1.31408c0.82216,0 1.4792,-0.82216 1.4792,-1.97284c-0.00172,-0.82044 -0.65876,-1.6426 -1.48092,-1.6426zM110.99676,58.308c-0.49364,0 -0.82216,0.32852 -1.15068,0.65704c0.16512,0 0.16512,0 0.32852,0c0.49364,0 0.82216,0.32852 0.82216,0.82216c0,0.49364 -0.32852,0.82216 -0.82216,0.82216c-0.32852,0 -0.49364,-0.16512 -0.65704,-0.32852c0,0.98556 0.65704,1.80772 1.4792,1.80772c0.82216,0 1.4792,-0.82216 1.4792,-1.97284c0,-0.98556 -0.65704,-1.80772 -1.4792,-1.80772zM111.4904,70.30672v-0.16512v0h-0.16512c-1.31408,1.15068 -3.61544,1.64432 -6.24532,1.64432c-2.62988,0 -4.76612,-0.65704 -6.24532,-1.64432c0,0 0,0 -0.16512,0h-0.16512v0.16512c1.4792,1.31408 3.94396,1.97284 6.41044,1.97284c2.795,-0.00172 5.09636,-0.65876 6.57556,-1.97284zM106.88768,76.71544l0.16512,-0.16512c0,0 0,-0.16512 -0.16512,-0.16512h-3.12352l-0.16512,0.16512c0,0 0,0.16512 0.16512,0.16512z" fill="#000000"></path><path d="M106.39576,109.9166c-10.84804,0 -17.7504,-2.13624 -26.13196,-7.72452c-0.32852,-0.16512 -0.32852,-0.49364 -0.32852,-0.82216c0,-0.16512 0,-0.49364 0,-1.15068c0,-2.62988 0.16512,-6.41044 0.65704,-8.71008c0.82216,-2.9584 1.97284,-4.10908 4.10908,-5.42316c0.82216,-0.49364 1.80772,-0.98556 2.9584,-1.15068l8.54668,-3.12352c0.65704,-0.16512 0.98556,-0.49364 0.98556,-0.82216c0,-0.16512 0.16512,-0.65704 0.16512,-2.30136c-1.15068,-0.82216 -2.13624,-1.64432 -2.46476,-1.97284c-1.97284,-1.80772 -2.9584,-3.61544 -3.45204,-5.42316c-0.16512,-0.49364 -0.16512,-0.65704 -0.32852,-0.82216c-0.16512,-0.16512 -0.49364,-0.32852 -0.65704,-0.49364c-0.65704,-0.32852 -1.31408,-0.65704 -1.64432,-1.64432c-0.98556,-1.97284 -1.80772,-5.58828 -1.80772,-6.73896v-0.16512c0.32852,-1.4792 1.64432,-2.46476 3.28692,-2.62988c0.16512,0 0.32852,0 0.49364,0c0.16512,0 0.49364,0 0.65704,0c0,-1.4792 0,-4.4376 0.16512,-5.75168v-0.65532c0,-5.75168 5.75168,-10.68292 13.3128,-10.84804h0.16512h0.16512v0h0.16512c7.396,0.32852 13.3128,5.09464 13.3128,10.84804v0.65704c0,1.31408 0.16512,4.27248 0.16512,5.75168c0.16512,0 0.32852,0 0.65704,0c0.16512,0 0.32852,0 0.49364,0c1.64432,0.16512 2.9584,1.15068 3.28692,2.62988v0.16512c0,1.31408 -0.82216,4.76612 -1.80772,6.73896c-0.49364,0.82216 -1.15068,1.31408 -1.64432,1.64432c-0.16512,0.16512 -0.49364,0.32852 -0.65704,0.49364c-0.16512,0.16512 -0.32852,0.32852 -0.32852,0.82216c-0.49364,1.80772 -1.4792,3.61544 -3.45204,5.42316c-0.32852,0.32852 -1.31408,1.15068 -2.62988,2.13624c0,1.31408 0.16512,1.80772 0.16512,1.97284c0.16512,0.49364 0.49364,0.82216 0.98556,0.82216c0.49364,0.16512 9.04032,3.28692 10.51952,3.94396c0.32852,0.16512 0.49364,0.16512 0.65704,0.32852c0.16512,0 0.16512,0.16512 0.32852,0.16512c2.62988,0.82216 3.94396,2.46476 4.60272,5.42316c0,0 0,0 0,0.16512c0,0 0.49364,6.73896 0.65704,11.8336c0,0.32852 -0.16512,0.65704 -0.49364,0.82216c-4.93124,2.46476 -13.80644,5.25976 -19.55812,5.58828c-1.48436,-0.00172 -2.79844,-0.00172 -4.27764,-0.00172zM81.74128,101.0414c8.8752,5.9168 16.2712,7.72452 28.92696,7.23088c5.42316,-0.16512 13.47792,-2.79328 18.40744,-5.09464c-0.16512,-4.93124 -0.65704,-10.51952 -0.65704,-11.17656c-0.49364,-2.46476 -1.4792,-3.61544 -3.45204,-4.10908c-0.16512,0 -0.32852,-0.16512 -0.49364,-0.16512c-0.16512,-0.16512 -0.49364,-0.16512 -0.65704,-0.32852c-1.4792,-0.65704 -10.3544,-3.94396 -10.51952,-3.94396c-0.82216,-0.16512 -1.4792,-0.82216 -1.97284,-1.64432c-0.32852,-0.65704 -0.49364,-1.64432 -0.32852,-3.12352c0,-0.32852 0.16512,-0.49364 0.32852,-0.65704c1.4792,-0.98556 2.46476,-1.97284 2.79328,-2.13624c1.64432,-1.64432 2.62988,-3.12352 2.9584,-4.60272c0.16512,-0.65704 0.32852,-1.15068 0.98556,-1.80772c0.32852,-0.16512 0.65704,-0.32852 0.82216,-0.49364c0.49364,-0.32852 0.82216,-0.49364 0.98556,-0.98556c0.82216,-1.64432 1.4792,-4.76612 1.64432,-5.75168c-0.16512,-0.65704 -0.98556,-1.15068 -1.80772,-1.15068c-0.16512,0 -0.32852,0 -0.32852,0c-0.32852,0 -0.65704,0 -0.82216,0c-0.32852,0 -0.65704,0.16512 -1.15068,-0.16512c-0.32852,-0.32852 -0.32852,-0.82216 -0.32852,-0.98556c0,-0.98556 0,-4.76612 0,-6.08192c0,-0.32852 0,-0.65704 0,-0.65704c0,-4.93124 -5.25976,-9.04032 -11.8336,-9.36884c0,0 0,0 -0.16512,0v0c0,0 0,0 -0.16512,0c-6.57384,0.16512 -11.8336,4.27248 -11.8336,9.36884c0,0 0,0.32852 0,0.65704c0,1.31408 -0.16512,5.09464 0,6.08192c0,0.16512 0,0.65704 -0.32852,0.98556c-0.32852,0.32852 -0.82216,0.32852 -1.15068,0.16512c-0.16512,0 -0.49364,0 -0.82216,0c-0.16512,0 -0.32852,0 -0.49364,0c-0.82216,0 -1.64432,0.49364 -1.80772,1.15068c0,1.15068 0.65704,4.27248 1.64432,5.75168c0.16512,0.49364 0.49364,0.65704 0.98556,0.98556c0.32852,0.16512 0.65704,0.32852 0.82216,0.49364c0.65704,0.49364 0.82216,1.15068 0.98556,1.64432c0.32852,1.4792 1.31408,2.9584 2.9584,4.60272c0.16512,0.16512 1.15068,0.98556 2.62988,1.97284c0.16512,0.16512 0.32852,0.49364 0.32852,0.65704c-0.16512,2.30136 -0.16512,2.79328 -0.16512,2.9584c-0.16512,0.98556 -1.15068,1.80772 -2.13624,1.97284l-8.54668,3.12352c-0.98556,0.32852 -1.80772,0.65704 -2.46476,0.98556c-1.97284,1.15068 -2.79328,2.13624 -3.45204,4.60272c-0.49364,1.97284 -0.65704,5.9168 -0.65704,8.21816c0.33368,0.3268 0.33368,0.65532 0.33368,0.82044z" fill="#000000"></path><path d="M120.03708,65.37548l-0.98556,-0.16512l0.16512,-1.97284l-0.98556,0.49364l-0.32852,-0.98556l1.80772,-0.82216c0.16512,0 0.32852,0 0.49364,0c0.16512,0.16512 0.16512,0.32852 0.16512,0.49364zM90.61648,65.04696l-0.32852,-2.79328c0,-0.16512 0,-0.32852 0.16512,-0.49364c0.16512,-0.16512 0.32852,-0.16512 0.49364,0l1.80772,0.82216l-0.32852,0.98556l-1.15068,-0.49364l0.16512,1.97284z" fill="#dda67a"></path><path d="M92.2608,70.47012v0c-0.16512,0 -0.32852,-0.16512 -0.32852,-0.32852l0.16512,-10.3544c0,-0.16512 0.16512,-0.32852 0.32852,-0.32852c0.16512,0 0.32852,0.16512 0.32852,0.32852l-0.16512,10.3544c0,0.16512 -0.1634,0.32852 -0.32852,0.32852zM118.06424,70.47012c-0.16512,0 -0.32852,-0.16512 -0.32852,-0.32852l-0.16512,-10.3544c0,-0.16512 0.16512,-0.32852 0.32852,-0.32852v0c0.16512,0 0.32852,0.16512 0.32852,0.32852l0.16512,10.3544c0,0.16512 -0.1634,0.32852 -0.32852,0.32852z" fill="#000000"></path><path d="M105.24508,81.48328c-2.62988,0 -6.90236,-3.12352 -7.06748,-3.28692c-0.16512,-0.1634 -0.16512,-0.32852 -0.16512,-0.49364c0.16512,-0.16512 0.32852,-0.16512 0.49364,-0.16512c1.31408,0.98556 4.93124,3.28692 6.90236,3.12352c2.30136,-0.32852 5.9168,-2.79328 5.9168,-2.79328c0.16512,-0.16512 0.49364,-0.16512 0.49364,0.16512c0.16512,0.16512 0.16512,0.49364 -0.16512,0.49364c-0.1634,0.16168 -3.94396,2.79156 -6.40872,2.95668c0.1634,0 0.1634,0 0,0z" fill="#000000"></path><path d="M90.28796,47.13144c0.49364,-1.15068 1.97284,-1.31408 1.97284,-1.31408c0,0 -1.31408,-1.64432 -0.82216,-2.30136c0.49364,-0.82216 4.93124,-5.9168 16.10608,-4.76612c11.17656,1.15068 12.49064,8.38156 12.49064,8.38156l-2.30136,13.14768c0,0 -4.4376,-12.98428 -22.35312,-10.51952c0,0 0.82216,1.64432 -2.9584,8.21816l-2.13452,-10.84632z" fill="#000000"></path></g><g><path d="M90.28796,92.0028c-0.49364,-2.6058 -1.4792,-4.07124 -3.94396,-4.72312c-0.16512,0 -0.32852,-0.1634 -0.49364,-0.1634c-0.16512,0 -0.49364,-0.1634 -0.65704,-0.32508c-1.4792,-0.65188 -10.3544,-3.90784 -10.3544,-3.90784c-0.65704,-0.1634 -1.15068,-0.65188 -1.4792,-1.30204c-0.49364,-0.97696 -0.32852,-3.41936 -0.32852,-3.41936c0,0 -3.61544,1.30204 -5.9168,1.62884c-2.30136,0.1634 -7.06748,-2.6058 -7.06748,-2.6058c0,0 -0.16512,3.58276 -0.32852,4.39804c-0.16512,0.65188 -0.82216,1.14036 -1.4792,1.30204l-8.54668,3.09428c-0.98556,0.1634 -1.80772,0.65188 -2.62988,1.14036c-2.13624,1.30204 -3.28692,3.25768 -3.78056,4.88652c0,0 -0.49364,2.28072 -0.49364,2.4424c0,0.48848 -0.16512,1.14036 -0.16512,1.79224c9.20372,6.18856 16.59972,7.9808 29.41888,7.32892c5.75168,-0.32508 14.46348,-3.09428 18.90108,-5.375c-0.16168,-4.88996 -0.65532,-6.192 -0.65532,-6.192z" fill="#dda67a"></path><path d="M86.344,87.44308c-0.16512,-0.1634 -0.32852,-0.1634 -0.49364,-0.1634c-0.16512,0 -0.49364,-0.1634 -0.65704,-0.32508c-0.98556,-0.32508 -4.60272,-1.79224 -7.396,-2.7692h-0.16512c-2.9584,1.46544 -7.23088,3.74616 -11.17656,3.74616c-3.94568,0 -7.88964,-2.11732 -11.17656,-3.74616l-0.32852,0.1634l-5.09464,1.79224c-0.98556,0.1634 -1.80772,0.65188 -2.62988,1.14036c-2.13624,1.30204 -3.28692,3.25768 -3.78056,4.88652c0,0 -0.49364,2.28072 -0.49364,2.4424c0,0.48848 -0.16512,6.35196 -0.16512,7.00384c9.20372,6.18856 16.59972,7.9808 29.41888,7.32892c5.58828,-0.1634 14.29836,-3.09428 18.73596,-5.375c-0.16512,-4.88652 -0.65704,-11.40016 -0.65704,-11.40016c-0.48848,-2.60752 -1.47576,-4.07468 -3.94052,-4.72484z" fill="#88cdd7"></path><path d="M53.8016,63.66408c-0.16512,-0.48848 -4.60272,-10.2598 -1.31408,-16.77516c1.4792,-2.7692 3.94396,-4.55972 7.56112,-5.375c2.13624,-1.46544 4.60272,-2.11732 7.06748,-2.11732c2.13624,0 4.10908,0.48848 5.9168,1.62884c0.98556,0.48848 1.80772,0.97696 2.46476,1.46544c2.13624,1.30204 2.79328,1.62884 3.94396,1.62884c0.16512,0 0.32852,0 0.49364,0c0.32852,0 0.49364,0 0.65704,0c1.31408,0 1.64432,0.81356 1.64432,1.30204c0.16512,1.30204 -0.32852,2.4424 -0.65704,3.41936c-0.32852,0.81356 -0.65704,1.46544 -0.49364,2.11732c2.13624,7.16552 -1.15068,13.029 -1.31408,13.35408l-1.4792,2.6058v-2.93088c0,0 0,-5.2116 -1.15068,-8.79436c-1.64432,0.81356 -3.61544,1.30204 -5.9168,1.30204c-3.78056,0 -8.05304,-1.30204 -12.32724,-3.90784c-3.61544,2.93088 -3.61544,11.40016 -3.61544,11.40016v3.74616z" fill="#000000"></path><path d="M66.94928,40.0502c1.80772,0 3.61544,0.48848 5.58828,1.46544c4.27248,2.28072 4.93124,3.09428 6.90236,3.09428c0.16512,0 0.32852,0 0.49364,0c0.16512,0 0.49364,0 0.65704,0c0.49364,0 0.82216,0.1634 0.82216,0.48848c0.32852,2.11732 -1.64432,3.90784 -1.15068,5.53668c2.13624,7.00384 -1.31408,12.70392 -1.31408,12.70392c0,0 0,-6.35196 -1.64432,-9.93472c-1.64432,1.14036 -3.78056,1.62884 -6.24532,1.62884c-3.61544,0 -7.88964,-1.30204 -12.32724,-4.23464c-4.4376,2.93088 -4.27248,12.37712 -4.27248,12.37712c0,0 -8.38156,-18.0772 5.9168,-21.17148c1.80772,-1.14036 4.10908,-1.95392 6.57384,-1.95392M66.94928,38.42136c-2.62988,0 -5.09464,0.81356 -7.396,2.28072c-3.78056,0.81356 -6.41044,2.7692 -7.88964,5.86348c-3.61544,7.00384 0.98556,17.10024 1.15068,17.58872l3.12352,6.84044v-7.654c0,-2.11732 0.49364,-7.8174 2.79328,-10.4232c4.10908,2.4424 8.38156,3.74616 12.16212,3.74616c1.97284,0 3.78056,-0.32508 5.42316,-0.97696c0.82216,3.25768 0.82216,7.654 0.82216,7.654v6.02516l3.12352,-5.2116c0.16512,-0.32508 3.78056,-6.35196 1.4792,-14.00596c-0.16512,-0.32508 0.16512,-0.97696 0.49364,-1.46544c0.49364,-0.97696 0.98556,-2.28072 0.65704,-3.74616c-0.16512,-0.97696 -0.82216,-1.95392 -2.46476,-1.95392c-0.16512,0 -0.32852,0 -0.65704,0h-0.16512c-0.16512,0 -0.32852,0 -0.32852,0c-0.98556,0 -1.4792,-0.32508 -3.61544,-1.46544c-0.65704,-0.32508 -1.4792,-0.81356 -2.46476,-1.46544c-1.80944,-1.14208 -3.94568,-1.63056 -6.24704,-1.63056z" fill="#000000"></path><path d="M50.8432,106.66064c-0.32852,0 -0.49364,-0.1634 -0.49364,-0.48848v-4.72312c0,-0.32508 0.16512,-0.48848 0.49364,-0.48848c0.32852,0 0.49364,0.1634 0.49364,0.48848v4.72312c0,0.32508 -0.32852,0.48848 -0.49364,0.48848zM82.07152,107.4742c-0.32852,0 -0.49364,-0.1634 -0.49364,-0.48848v-5.53668c0,-0.32508 0.16512,-0.48848 0.49364,-0.48848c0.32852,0 0.49364,0.1634 0.49364,0.48848v5.53668c-0.00172,0.32508 -0.16512,0.48848 -0.49364,0.48848z" fill="#00a5a5"></path><path d="M81.08424,60.7332c-0.16512,0 -0.32852,0 -0.49364,0c-1.15068,0 -0.98556,0.32508 -0.98556,-0.32508c0.16512,-1.30204 -0.49364,-6.35196 -0.49364,-6.51364c0,-5.2116 -5.58828,-9.60792 -12.49064,-9.77132v0h-0.16512h-0.16512v0c-6.90236,0.1634 -12.49064,4.55972 -12.49064,9.77132c0,0.32508 -0.16512,5.375 -0.16512,6.51364c0,0.65188 -0.32852,0.32508 -1.4792,0.32508c-0.16512,0 -0.32852,0 -0.49364,0c-1.31408,0.1634 -2.30136,0.81356 -2.46476,1.79224c0.16512,0.1634 0.65704,4.39804 1.64432,6.02516c0.49364,0.97696 1.31408,1.14036 2.13624,1.62884c0.49364,0.32508 0.49364,0.65188 0.65704,1.30204c0.49364,1.95392 1.80772,3.41936 3.12352,4.88652c0.65704,0.65188 5.42316,5.53668 9.36884,5.375c3.94396,-0.1634 8.71008,-4.72312 9.36884,-5.375c1.4792,-1.30204 2.79328,-2.93088 3.12352,-4.88652c0.16512,-0.48848 0.16512,-0.81356 0.65704,-1.30204c0.82216,-0.65188 1.64432,-0.81356 2.13624,-1.62884c0.98556,-1.62884 1.4792,-6.02516 1.64432,-6.02516c0.32852,-0.81528 -0.65704,-1.62884 -1.97284,-1.79224z" fill="#dda67a"></path><path d="M66.62076,69.20248c0.82216,0 1.64432,-0.32508 2.13624,-0.97696v-0.1634v0h-0.1634c-0.49364,0.48848 -1.15068,0.81356 -1.80772,0.81356c-0.65704,0 -1.4792,-0.32508 -1.80772,-0.81356c0,0 0,0 -0.16512,0c0,0 0,0 -0.16512,0v0.1634c0.49364,0.48848 1.1524,0.97696 1.97284,0.97696zM64.156,58.2908l0.49364,-0.97696c-2.13624,-0.48848 -4.76612,-0.48848 -6.73896,0.1634l0.65704,0.97696c1.64432,-0.4902 3.78056,-0.65188 5.58828,-0.1634zM75.00404,58.2908l0.49364,-0.97696c-2.13624,-0.48848 -4.60272,-0.48848 -6.73896,0.1634l0.65704,0.97696c1.6426,-0.4902 3.78056,-0.65188 5.58828,-0.1634zM61.03248,59.59284c-0.49364,0 -0.98556,0.32508 -1.31408,0.81356h0.16512c0.49364,0 0.82216,0.32508 0.82216,0.81356c0,0.48848 -0.32852,0.81356 -0.82216,0.81356c-0.16512,0 -0.32852,0 -0.32852,-0.1634c0.16512,0.81356 0.82216,1.30204 1.4792,1.30204c0.82216,0 1.4792,-0.81356 1.4792,-1.95392c-0.00172,-1.13692 -0.65876,-1.6254 -1.48092,-1.6254zM72.37416,59.59284c-0.49364,0 -0.82216,0.32508 -1.15068,0.65188c0.16512,0 0.16512,0 0.32852,0c0.49364,0 0.82216,0.32508 0.82216,0.81356c0,0.48848 -0.32852,0.81356 -0.82216,0.81356c-0.32852,0 -0.49364,-0.1634 -0.65704,-0.32508c0,0.97696 0.65704,1.79224 1.4792,1.79224c0.82216,0 1.4792,-0.81356 1.4792,-1.95392c0,-0.97696 -0.65704,-1.79224 -1.4792,-1.79224zM73.0312,71.3198v-0.1634v0h-0.16512c-1.31408,1.14036 -3.61544,1.62884 -6.08192,1.62884c-2.46476,0 -4.76612,-0.65188 -6.08192,-1.62884c0,0 0,0 -0.16512,0h-0.16512v0.1634c1.4792,1.30204 3.94396,1.95392 6.24532,1.95392c2.46992,0 4.76956,-0.65188 6.41388,-1.95392zM68.42848,77.50836l0.16512,-0.1634c0,0 0,-0.1634 -0.16512,-0.1634h-3.12352l-0.16512,0.1634c0,0 0,0.1634 0.16512,0.1634z" fill="#000000"></path><path d="M67.93656,110.08c-10.68292,0 -17.42188,-2.11732 -25.64004,-7.654c-0.32852,-0.1634 -0.32852,-0.48848 -0.32852,-0.81528c0,-0.1634 0,-0.48848 0,-1.14036c0,-2.6058 0.16512,-6.35196 0.65704,-8.46928c0.82216,-2.93088 1.97284,-4.07124 4.10908,-5.375c0.82216,-0.48848 1.80772,-0.81356 2.79328,-1.14036l8.38156,-3.09428c0.49364,-0.1634 0.98556,-0.48848 0.98556,-0.65188c0,-0.32508 0.16512,-1.14036 0.16512,-2.28072c-1.15068,-0.81356 -2.13624,-1.62884 -2.46476,-1.79224c-1.80772,-1.79224 -2.9584,-3.41936 -3.45204,-5.2116c-0.16512,-0.48848 -0.16512,-0.65188 -0.32852,-0.81356c-0.16512,-0.1634 -0.49364,-0.32508 -0.65704,-0.48848c-0.49364,-0.32508 -1.15068,-0.65188 -1.64432,-1.46544c-0.98556,-1.95392 -1.80772,-5.375 -1.80772,-6.51364v-0.1634c0.32852,-1.30204 1.64432,-2.4424 3.28692,-2.4424c0.16512,0 0.32852,0 0.49364,0c0.16512,0 0.32852,0 0.65704,0c0,-1.46544 0,-4.23464 0.16512,-5.53668v-0.65188c0,-5.70008 5.75168,-10.4232 13.14768,-10.74828h0.16512h0.16512v0h0.16512c7.396,0.32508 13.14768,5.0482 13.14768,10.74828c0,0 0,0.48848 0.16512,0.81356c0.16512,1.95392 0.49364,4.23464 0.49364,5.2116v0c0.32852,0 0.49364,0 0.65704,0c1.64432,0.1634 2.9584,1.14036 3.28692,2.4424v0.1634c0,1.30204 -0.82216,4.72312 -1.80772,6.51364c-0.49364,0.81356 -1.15068,1.30204 -1.64432,1.46544c-0.16512,0.1634 -0.49364,0.32508 -0.65704,0.48848c-0.16512,0.1634 -0.16512,0.32508 -0.32852,0.81356c-0.49364,1.79224 -1.4792,3.41936 -3.45204,5.375c-0.32852,0.32508 -1.31408,1.14036 -2.62988,2.11732c0,1.30204 0.16512,1.79224 0.16512,1.95392c0.16512,0.48848 0.49364,0.65188 0.98556,0.81356c0.49192,0.16168 8.8752,3.25768 10.3544,3.90784c0.32852,0.1634 0.49364,0.1634 0.65704,0.32508c0.16512,0 0.16512,0.1634 0.32852,0.1634c2.62988,0.81356 3.94396,2.4424 4.60272,5.375c0,0 0,0 0,0.1634c0,0 0.49364,6.51364 0.65704,11.56356c0,0.32508 -0.16512,0.65188 -0.49364,0.81356c-4.76612,2.44756 -12.78476,5.21676 -23.50208,5.21676zM43.4472,101.28564c8.71008,5.70008 15.94268,7.49232 28.43332,7.00384c5.25976,-0.1634 13.416,-2.55592 18.18212,-4.83492c-0.16512,-4.72312 -0.76024,-10.47308 -0.76024,-11.12496c-0.49364,-2.28072 -1.31408,-3.41936 -3.45204,-4.07124c-0.16512,0 -0.32852,-0.1634 -0.49364,-0.1634c-0.16512,-0.1634 -0.49364,-0.1634 -0.65704,-0.32508c-1.31408,-0.48848 -10.02588,-3.74616 -10.02588,-3.74616c-0.82216,-0.1634 -1.4792,-0.81356 -1.97284,-1.62884c-0.16512,-0.1634 -0.49364,-0.97696 -0.32852,-3.09428c0,-0.32508 0.16512,-0.48848 0.32852,-0.65188c1.31408,-0.97696 2.46476,-1.95392 2.79328,-2.11732c1.64432,-1.62884 2.62988,-3.09428 2.9584,-4.55972c0.16512,-0.65188 0.32852,-1.14036 0.98556,-1.62884c0.32852,-0.1634 0.65704,-0.32508 0.82216,-0.48848c0.49364,-0.32508 0.82216,-0.48848 0.98556,-0.81356c0.82216,-1.62884 1.4792,-4.55972 1.4792,-5.70008c-0.16512,-0.65188 -0.82216,-1.14036 -1.64432,-1.14036c-0.16512,0 -0.16512,0 -0.32852,0h-0.16512c-0.65704,0 -1.15068,0 -1.4792,-0.48848c-0.32852,-0.32508 -0.32852,-0.65188 -0.16512,-0.97696c0,-0.97696 -0.16512,-3.90784 -0.32852,-5.2116c0,-0.65188 -0.16512,-0.97696 -0.16512,-0.97696c0,-4.88652 -5.09464,-8.79436 -11.66848,-9.11944c0,0 0,0 -0.16512,0v0c0,0 0,0 -0.16512,0c-6.57384,0.1634 -11.66848,4.23464 -11.66848,9.11944c0,0 0,0.32508 0,0.65188c0,1.30204 -0.16512,4.88652 0,5.86348c0,0.1634 0,0.65188 -0.32852,0.97696c-0.32852,0.32508 -0.82216,0.32508 -1.15068,0.1634c-0.16512,0 -0.49364,0 -0.82216,0c-0.16512,0 -0.32852,0 -0.32852,0c-0.82216,0 -1.4792,0.48848 -1.80772,1.14036c0,1.14036 0.65704,4.23464 1.4792,5.70008c0.16512,0.48848 0.49364,0.65188 0.98556,0.81356c0.32852,0.1634 0.65704,0.32508 0.82216,0.48848c0.65704,0.48848 0.82216,1.14036 0.98556,1.62884c0.32852,1.46544 1.31408,2.93088 2.9584,4.55972c0.16512,0.1634 1.15068,0.97696 2.62988,1.95392c0.16512,0.1634 0.32852,0.48848 0.32852,0.65188c0,1.46544 -0.16512,2.4424 -0.16512,2.93088c-0.16512,0.97696 -1.15068,1.79224 -2.13624,1.95392l-8.38156,3.09428c-0.98556,0.32508 -1.80772,0.65188 -2.46476,0.97696c-1.97284,1.14036 -2.79328,1.95392 -3.45204,4.39804c-0.49364,1.95392 -0.65704,5.70008 -0.65704,7.9808c0.17028,0.32336 0.17028,0.64844 0.17028,0.81184z" fill="#000000"></path><path d="M81.41276,66.59668l-0.98556,-0.1634l0.16512,-1.79224l-0.98556,0.48848l-0.32852,-0.97696l1.80772,-0.81356c0.16512,0 0.32852,0 0.49364,0c0.16512,0.1634 0.16512,0.32508 0.16512,0.48848zM52.3224,66.1082l-0.32852,-2.7692c0,-0.1634 0,-0.32508 0.16512,-0.48848c0.16512,-0.1634 0.32852,-0.1634 0.49364,0l1.80772,0.81356l-0.32852,0.97696l-0.98556,-0.48848l0.16512,1.79224z" fill="#dda67a"></path><path d="M53.96672,71.48148v0c-0.16512,0 -0.32852,-0.1634 -0.32852,-0.32508l0.16512,-10.2598c0,-0.1634 0.16512,-0.32508 0.32852,-0.32508v0c0.16512,0 0.32852,0.1634 0.32852,0.32508l-0.16512,10.2598c0,0.1634 -0.16512,0.32508 -0.32852,0.32508zM79.44164,71.48148c-0.16512,0 -0.32852,-0.1634 -0.32852,-0.32508l-0.16512,-10.2598c0,-0.1634 0.16512,-0.32508 0.32852,-0.32508v0c0.16512,0 0.32852,0.1634 0.32852,0.32508l0.16512,10.2598c0,0.1634 -0.16512,0.32508 -0.32852,0.32508zM66.78588,82.23148c-2.62988,0 -6.90236,-3.09428 -7.06748,-3.25768c-0.16512,-0.1634 -0.16512,-0.32508 -0.16512,-0.48848c0.16512,-0.1634 0.32852,-0.1634 0.49364,-0.1634c1.31408,0.97696 4.93124,3.25768 6.73896,3.09428c2.30136,-0.32508 5.9168,-2.7692 5.9168,-2.7692c0.16512,-0.1634 0.49364,-0.1634 0.49364,0.1634c0.16512,0.1634 0.16512,0.48848 -0.16512,0.48848c-0.16512,0.1634 -3.78056,2.6058 -6.24532,2.9326c0.1634,0 0,0 0,0z" fill="#000000"></path><path d="M81.41276,45.2618c-0.16512,-0.65188 -0.82216,-0.48848 -1.4792,-0.48848c-2.30136,0.1634 -2.79328,-0.65188 -7.23088,-3.09428c-4.60272,-2.4424 -9.20372,-1.46544 -12.32724,0.65188c-14.13496,3.09428 -5.9168,21.17148 -5.9168,21.17148c0,0 0,-9.44624 4.27248,-12.37712c7.396,4.72312 14.29836,5.2116 18.57256,2.4424c1.64432,3.58276 1.64432,9.93472 1.64432,9.93472c0,0 3.45204,-5.70008 1.31408,-12.70392c-0.49192,-1.79052 1.4792,-3.41936 1.15068,-5.53668z" fill="#000000"></path><path d="M79.77016,63.339h-0.82216c0,0 0,-5.86348 -1.4792,-9.28284c-4.76612,2.7692 -11.8336,1.79224 -18.73596,-2.6058c-3.94396,2.93088 -3.94396,11.88864 -3.94396,11.88864h-0.82216c0,-0.32508 0,-9.77132 4.60272,-12.70392c0.16512,-0.1634 0.32852,-0.1634 0.49364,0c6.90236,4.39804 14.13496,5.375 18.57256,2.4424c0.16512,0 0.16512,0 0.32852,0c0.16512,0 0.16512,0.1634 0.32852,0.1634c1.47748,3.58448 1.47748,9.93472 1.47748,10.09812z" fill="#000000"></path></g><g><path d="M100.84016,86.72412c0.16512,-1.80772 -0.32852,-3.28692 -0.32852,-4.10908v0c-1.4792,-1.97284 -2.46476,-4.27248 -4.76612,-5.58828c-2.30136,-1.4792 -5.25976,-2.62988 -7.88964,-3.28692c-6.73896,-1.64432 -13.14768,3.12352 -15.28564,9.53224c0,0 0,0 0,0.16512c0.32852,1.4792 0.49364,2.79328 0.49364,3.45204c-1.80772,0 -2.79328,0.98556 -2.13624,2.79328c0,0 0.65704,3.12352 1.15068,4.60272c0.32852,0.98556 0.82216,1.31408 1.80772,1.4792c0,0.98556 0,1.97284 0,2.9584c0,1.15068 0.32852,2.30136 0.98556,3.28692c1.80772,2.46476 10.84804,8.38156 12.98428,8.21816c3.61544,0 10.34236,-6.15244 12.15008,-9.11084c0.32852,-0.49364 0.41108,-1.48264 0.41108,-2.1414c0,-1.15068 0.258,-2.06056 0.258,-3.21124c0.65704,-0.16512 1.15068,-0.49364 1.4792,-1.31408c0.49364,-1.4792 1.15068,-4.4376 1.15068,-4.60272c0.65876,-2.13796 -0.65704,-3.12352 -2.46476,-3.12352z" fill="#dda67a"></path><g fill="#f4989e" opacity="0.3"><path d="M78.81728,96.18584c-1.27108,-0.00172 -2.30136,1.02856 -2.30308,2.29964c-0.00172,1.27108 1.02856,2.30136 2.29964,2.30308c0.00172,0 0.00172,0 0.00344,0c1.27108,0.00172 2.30136,-1.02856 2.30308,-2.29964c0.00172,-1.27108 -1.02856,-2.30136 -2.29964,-2.30308c-0.00172,0 -0.00344,0 -0.00344,0zM96.56768,96.18584c-1.27108,-0.00172 -2.30136,1.02856 -2.30308,2.29964c-0.00172,1.27108 1.02856,2.30136 2.29964,2.30308c0.00172,0 0.00172,0 0.00344,0c1.27108,0.00172 2.30136,-1.02856 2.30308,-2.29964c0.00172,-1.27108 -1.02856,-2.30136 -2.29964,-2.30308c-0.00172,0 -0.00344,0 -0.00344,0z" opacity="0.8"></path></g><path d="M74.19048,96.42836c-0.16168,0 -0.32336,-0.16168 -0.32336,-0.32336l-0.96836,-9.19512c0,-0.16168 0.16168,-0.32336 0.32336,-0.32336c0.16168,0 0.32336,0.16168 0.32336,0.32336l0.96836,9.19512c0,0.16168 -0.16168,0.32336 -0.32336,0.32336zM100.0008,95.94332v0c-0.16168,0 -0.32336,-0.16168 -0.32336,-0.32336l0.48332,-9.19512c0,-0.16168 0.16168,-0.32336 0.32336,-0.32336c0.16168,0 0.32336,0.16168 0.32336,0.32336l-0.48332,9.19512c0,0.16168 -0.16168,0.32336 -0.32336,0.32336z" fill="#000000"></path><path d="M83.41828,101.67952c0,0.16512 0,0.32852 0,0.49364c0,1.64432 1.80772,2.9584 4.10908,2.9584c2.30136,0 4.10908,-1.31408 4.10908,-2.9584c0,-0.16512 0,-0.32852 0,-0.49364z" fill="#6d1b18"></path><path d="M89.6636,104.80304c-0.32852,-0.49364 -1.15068,-0.65704 -2.13624,-0.65704c-0.98556,0 -1.80772,0.32852 -2.13624,0.65704c0.65704,0.32852 1.31408,0.49364 2.13624,0.49364c0.82216,-0.00172 1.4792,-0.33024 2.13624,-0.49364z" fill="#ee3e54"></path><path d="M84.56896,101.67952v0v0.49364c0,0.49364 0.49364,0.82216 1.31408,0.82216h3.12352c0.65704,0 1.31408,-0.32852 1.31408,-0.82216v-0.49364v0z" fill="#fdfcef"></path><path d="M87.52736,105.6252c-2.46476,0 -4.4376,-1.4792 -4.4376,-3.28692c0,-0.16512 0,-0.49364 0.16512,-0.65704c0,-0.16512 0.16512,-0.16512 0.32852,-0.16512h7.88964c0.16512,0 0.32852,0.16512 0.32852,0.32852c0,0.16512 0.16512,0.49364 0.16512,0.65704c-0.16512,1.64432 -2.13796,3.12352 -4.43932,3.12352zM83.7468,102.00804v0.16512c0,1.4792 1.64432,2.62988 3.78056,2.62988c2.13624,0 3.78056,-1.15068 3.78056,-2.62988v-0.16512z" fill="#000000"></path><path d="M87.52736,99.54328c0.82216,0 1.80772,-0.32852 2.30136,-0.98556v-0.16512v0h-0.16512c-0.49364,0.49364 -1.15068,0.82216 -2.13624,0.82216c-0.82216,0 -1.64432,-0.32852 -2.13624,-0.82216c0,0 0,0 -0.16512,0c0,0 0,0 -0.16512,0v0.16512c0.65876,0.49192 1.48092,0.98556 2.46648,0.98556zM88.51464,107.43292c0,0 0,-0.16512 0,0c0.16512,-0.16512 0,-0.16512 0,-0.16512h-2.13624c0,0 -0.16512,0 -0.16512,0.16512c0,0.16512 0,0.16512 0.16512,0.16512h2.13624z" fill="#000000" opacity="0.41"></path><path d="M85.0626,85.40832c-2.30136,-0.82216 -6.24532,-1.15068 -8.71008,-0.98556c-0.16512,0 -0.16512,0.16512 -0.16512,0.16512c0,0.16512 0.16512,0.16512 0.16512,0.16512c0,0 5.9168,0.98556 7.72452,1.64432c0,0 0,0 0.16512,0c0.16512,0 0.16512,0 0.16512,-0.16512l0.65532,-0.82388v-0.16512c0.1634,0.33024 0,0.16512 0,0.16512zM89.6636,85.24492c2.30136,-0.65704 6.41044,-0.82216 8.71008,-0.49364c0.16512,0 0.16512,0.16512 0.16512,0.16512c0,0.16512 -0.16512,0.16512 -0.16512,0.16512c0,0 -5.9168,0.65704 -7.88964,1.31408c0,0 0,0 -0.16512,0c-0.16512,0 -0.16512,0 -0.16512,-0.16512l-0.65704,-0.82216v-0.16512c0.16684,0.00172 0.16684,0.00172 0.16684,0.00172z" fill="#000000"></path><path d="M80.95352,87.8748c-0.65704,0 -1.15068,0.32852 -1.4792,0.98556h0.16512c0.49364,0 0.82216,0.49364 0.82216,0.98556c0,0.49364 -0.32852,0.98556 -0.82216,0.98556c-0.16512,0 -0.32852,0 -0.49364,-0.16512c0.16512,0.82216 0.82216,1.4792 1.64432,1.4792c0.98556,0 1.64432,-0.98556 1.64432,-2.13624c0.1634,-1.14896 -0.65876,-2.13452 -1.48092,-2.13452zM93.77268,87.8748c-0.49364,0 -0.98556,0.32852 -1.31408,0.65704c0.16512,0 0.16512,0 0.32852,0c0.49364,0 0.82216,0.49364 0.82216,0.98556c0,0.49364 -0.32852,0.98556 -0.82216,0.98556c-0.32852,0 -0.49364,-0.16512 -0.65704,-0.49364c0,1.15068 0.82216,2.13624 1.64432,2.13624c0.98556,0 1.64432,-0.98556 1.64432,-2.13624c-0.00172,-1.14896 -0.65876,-2.13452 -1.64604,-2.13452z" fill="#000000"></path><path d="M64.64964,129.95804c13.28872,9.66984 31.46396,8.09604 45.4682,0.77744c0.39388,-6.21608 -0.40248,-12.94988 -4.01792,-14.10056c-0.16512,0 -0.16512,-0.16512 -0.32852,-0.16512c-0.1634,0 -0.32852,-0.16512 -0.65704,-0.32852c-1.4792,-0.65704 -10.84804,-3.78056 -10.84804,-3.78056c-0.65704,-0.16512 -1.15068,-0.65704 -1.4792,-1.31408c-0.49364,-0.98556 -0.32852,-3.45204 -0.32852,-3.45204c0,0 -2.79328,1.31408 -4.93124,1.64432c-2.13624,0.16512 -6.08192,-2.62988 -6.08192,-2.62988c0,0 -0.16512,3.61544 -0.32852,4.27248c-0.16512,0.65704 -0.82216,1.15068 -1.4792,1.31408l-9.04032,2.9584c-0.98556,0.16512 -1.80772,0.65704 -2.46476,0.98556c-2.30136,1.4792 -3.28692,3.78056 -3.78056,5.42316v0c0,0.16512 0,0.32852 -0.16512,0.65704c-0.16512,0.82216 -0.16512,1.4792 -0.16512,1.64432c0.16684,0.49708 0.6278,5.93056 0.6278,6.09396z" fill="#dda67a"></path><path d="M102.48448,134.04132l-0.65704,-19.2124l-5.42316,-1.97284c-3.61544,2.79328 -18.78068,0.02064 -18.78068,0.02064l-5.35092,1.88856l-0.35948,19.27604c10.8016,3.61888 21.04592,3.93708 30.57128,0z" fill="#0f3272"></path><path d="M98.04688,67.98644c0,-0.32852 0,-0.49364 -0.16512,-0.82216c0,-0.16512 0.16512,-0.49364 0.16512,-0.82216c0,-1.4792 -1.15068,-2.79328 -2.62988,-3.28692c0,-1.97284 -1.80772,-3.45204 -3.94396,-3.61544c-0.65704,-1.31408 -2.30136,-2.30136 -4.10908,-2.30136c-1.64432,0 -3.12352,0.82216 -3.94396,2.13624c-0.32852,0 -0.65704,-0.16512 -0.98556,-0.16512c-1.97284,0 -3.78056,1.4792 -3.78056,3.28692v0.16512c-1.80772,0.49364 -2.9584,1.97284 -2.9584,3.61544c0,0.98556 0.32852,1.80772 0.98556,2.46476c-0.49364,0.49364 -0.65704,1.15068 -0.65704,1.97284c0,1.80772 1.64432,3.28692 3.61544,3.28692c0.49364,0 0.98556,-0.16512 1.4792,-0.32852c0,1.4792 1.4792,2.79328 3.12352,2.79328c0.32852,0 0.65704,0 0.98556,-0.16512c0.82216,0.98556 1.97284,1.4792 3.45204,1.4792c2.13624,0 4.10908,-1.4792 4.27248,-3.45204c1.4792,-0.49364 2.46476,-1.80772 2.62988,-3.28692c1.47748,-0.15996 2.46476,-1.47576 2.46476,-2.95496z" fill="#000000"></path><path d="M85.39112,87.38116c-2.62988,-3.12352 -12.49064,-0.98556 -12.49064,-0.98556c0.16512,0.65704 0.32852,1.4792 0.49364,2.13624c0.65704,0 0.82216,1.80772 0.82216,2.30136c0.32852,2.9584 2.30136,5.09464 6.41044,4.93124c4.10908,-0.1634 5.09464,-3.12352 5.25976,-5.09464c0.16168,-1.97456 -0.49536,-3.28864 -0.49536,-3.28864zM85.0626,90.9966c-0.16512,2.62988 -1.80772,4.10908 -4.4376,4.27248c-0.32852,0 -0.49364,0 -0.82216,0c-4.10908,0 -4.76612,-3.61544 -4.93124,-5.9168c0,-1.31408 0.82216,-2.46476 2.13624,-2.46476c0.82216,0 1.64432,0 2.62988,0c3.12352,0 4.4376,0.65704 4.76612,1.31408c0.16512,0.16512 0.65876,1.3158 0.65876,2.795zM88.34952,90.8332c0.16512,1.80772 1.15068,4.93124 5.25976,5.09464c4.10908,0.1634 6.08192,-1.97284 6.41044,-4.93124c0,-0.65704 0.16512,-2.30136 0.82216,-2.30136c0.16512,-0.65704 0.32852,-1.4792 0.49364,-2.13624c0,0 -9.86076,-2.30136 -12.49064,0.98556c-0.00172,-0.1634 -0.66048,1.15068 -0.49536,3.28864zM89.82872,88.0382c0.32852,-0.65704 1.64432,-1.31408 4.76612,-1.31408c0.98556,0 1.80772,0 2.62988,0c1.31408,0.16512 2.30136,1.31408 2.13624,2.46476c0,2.30136 -0.82216,5.9168 -4.93124,5.9168c-0.16512,0 -0.49364,0 -0.82216,0c-2.62988,-0.16512 -4.27248,-1.64432 -4.4376,-4.27248c0.00172,-1.3158 0.49364,-2.46648 0.65876,-2.795z" fill="#000000"></path><path d="M88.84316,89.84592c0,0 -0.65704,-0.49364 -1.80772,-0.49364c-1.15068,0 -1.64432,0.49364 -1.64432,0.49364c-0.16512,-0.49364 -0.32852,-0.98556 -0.49364,-1.4792c1.4792,0 3.12352,0 4.60272,0c-0.16512,0.49364 -0.32852,0.98728 -0.65704,1.4792z" fill="#000000"></path><path d="M87.43104,137.5914c-8.49336,0 -17.071,-2.1672 -23.4436,-6.5102c-0.22876,-0.15652 -0.35604,-0.4214 -0.3354,-0.69488c0.00688,-0.20124 0.01376,-1.68044 0.02236,-3.21124c0.01892,-3.65328 0.02236,-3.67048 0.03784,-3.77196c0.73616,-4.46512 3.1046,-7.27904 5.07744,-8.42284c0.96664,-0.52116 1.75612,-0.86172 2.52152,-1.19196l8.43832,-2.97732c0.1892,-0.0688 0.33368,-0.1634 0.40248,-0.2236c0.01376,-0.27864 0.06708,-0.81528 0.13588,-1.5136l0.12384,-1.26076c-2.07604,-1.43964 -4.67668,-3.57244 -5.70352,-5.23052c-0.65704,-0.99072 -1.4276,-2.365 -1.4276,-4.02652c0,-0.387 -0.03612,-0.774 -0.07224,-1.161c-0.02408,-0.25284 -0.04644,-0.5074 -0.06192,-0.76024c-1.01652,-0.5332 -1.376,-1.69764 -1.50672,-2.12248c-0.215,-0.57792 -0.43,-1.54972 -0.69832,-2.77952c-0.11696,-0.52976 -0.24252,-1.10424 -0.38356,-1.7114c-0.62092,-2.00208 0.03096,-2.99796 0.34056,-3.33164c0.25284,-0.27176 0.67424,-0.72584 1.39148,-1.01652c-0.26832,-0.82044 -0.38012,-1.91092 -0.38012,-2.0726c0,-7.94812 6.64264,-14.41532 14.80576,-14.41532c8.16312,0 14.80576,6.4672 14.80576,14.41532c-0.0172,0.19092 -0.11696,1.13004 -0.3268,1.89028c0.89096,0.28208 1.47404,0.74476 1.7802,1.40008c0.00344,-0.00516 0.05504,0.04128 0.1204,0.11524c0.50224,0.54696 0.97524,1.21088 0.78776,2.77952c-0.06364,0.26316 -1.04232,3.84248 -1.35536,4.687c-0.3182,0.85484 -0.97008,1.47404 -1.61508,1.81116v2.43896c0,0.7998 -0.344,1.89544 -0.68284,2.62816c-1.31064,2.12764 -4.10736,4.9794 -6.78884,6.96772c0.01548,1.05608 0.086,1.53768 0.1204,1.78192c0.00516,0.02924 0.0086,0.05504 0.01204,0.07912c0.1204,0.24252 0.2924,0.46956 0.85828,0.64844c0.3526,0.1118 8.35748,3.02032 9.68876,3.62576c5.8222,2.65568 6.4672,5.15312 6.7854,8.66192c0.0086,0.09288 0.01204,0.44548 0.0258,3.46924c0.0086,1.70624 0.01548,3.45892 0.02408,3.6464c0.01204,0.258 -0.10664,0.51772 -0.31476,0.6708c-6.05096,4.45652 -14.58732,6.68908 -23.20968,6.68908zM65.2052,130.03372c12.28252,8.11324 32.70064,8.04444 44.19712,-0.1462c-0.00516,-0.46784 -0.0086,-1.40008 -0.01892,-3.29552c-0.00688,-1.61508 -0.01376,-3.1906 -0.02064,-3.3626c-0.25628,-2.82596 -0.44548,-4.88652 -5.88412,-7.36848c-1.22636,-0.559 -9.1332,-3.43828 -9.51332,-3.55868c-1.30376,-0.41108 -1.66668,-1.19196 -1.8404,-1.56864c-0.04644,-0.10148 -0.08084,-0.2322 -0.08084,-0.344c-0.05676,-0.37668 -0.15308,-1.01996 -0.15308,-2.46476c0,-0.2494 0.1204,-0.48332 0.32336,-0.62952c2.59032,-1.85932 5.4524,-4.73172 6.6564,-6.68048c0.26316,-0.57964 0.49536,-1.42932 0.49536,-1.89372v-2.9584c0,-0.34916 0.23564,-0.65704 0.57276,-0.74648c0.39732,-0.10664 0.93224,-0.52288 1.14036,-1.0836c0.2408,-0.64672 1.01308,-3.42796 1.29,-4.44448c0.09976,-0.88064 -0.1376,-1.13864 -0.40936,-1.4362c-0.13072,-0.14276 -0.25112,-0.27864 -0.34228,-0.42828c-0.23736,-0.49708 -0.9202,-0.70004 -1.462,-0.79636c-0.36808,-0.06708 -0.6364,-0.387 -0.6364,-0.76196c0,-0.1118 0.0258,-0.55212 0.07224,-0.6536c0.1806,-0.39216 0.33368,-1.36912 0.39044,-1.892c-0.00516,-7.01588 -5.95292,-12.7882 -13.26292,-12.7882c-7.31,0 -13.25776,5.77232 -13.25776,12.86732c0.0086,0.19436 0.15824,1.32096 0.38528,1.81116c0.04644,0.10148 0.07224,0.21328 0.07224,0.32508v0.49364c0,0.37496 -0.26832,0.69488 -0.63812,0.76196c-0.66048,0.11868 -0.9718,0.45408 -1.247,0.74992c-0.00516,0.00516 -0.41624,0.46956 0.01892,1.8748c0.15652,0.66736 0.28552,1.24872 0.40248,1.78364c0.24768,1.12488 0.46096,2.09668 0.65188,2.61268c0.33368,1.07328 0.70864,1.26592 0.9632,1.32096c0.35776,0.0774 0.6106,0.39216 0.6106,0.7568c0,0.387 0.03612,0.774 0.07224,1.161c0.03956,0.43344 0.07912,0.8686 0.07912,1.30204c0,0.98728 0.35432,1.94188 1.18164,3.19232c0.7912,1.27796 3.05644,3.29724 5.64676,5.04304c0.23392,0.15824 0.36464,0.43172 0.33884,0.7138l-0.16856,1.72516c-0.07568,0.75336 -0.13244,1.2986 -0.13244,1.48952c0,0.76368 -0.73788,1.30204 -1.4276,1.54972l-8.3936,2.96012c-0.71896,0.31132 -1.4448,0.62436 -2.3306,1.10252c-1.64604,0.9546 -3.65672,3.39012 -4.30516,7.32376c0,0.1204 -0.0086,1.85416 -0.0172,3.52772c-0.01032,1.60648 -0.01548,2.4252 -0.01892,2.85348z" fill="#000000"></path><path d="M87.19884,67.00088c-13.3128,0 -18.07892,11.33996 -14.13496,22.51652c0.16512,0.49364 1.15068,0.49364 1.15068,-0.16512c0.49364,-6.41044 3.61544,-11.66848 12.98428,-9.04032c9.53224,-2.62988 12.49064,2.62988 12.98428,9.04032c0,0.49364 0.98556,0.65704 1.15068,0.16512c3.94396,-11.17656 -0.82216,-22.51652 -14.13496,-22.51652z" fill="#000000"></path><g fill="#000000"><path d="M87.48608,109.86156c-2.68836,0 -6.966,-2.54044 -7.1466,-2.6488l0.44204,-0.73788c0.04128,0.0258 4.25356,2.52668 6.70456,2.52668c2.74168,0 5.81016,-2.32888 6.81808,-3.09428l0.52116,0.68456c-1.0664,0.8084 -4.3086,3.26972 -7.33924,3.26972z"></path></g></g></g></g></svg>