<?xml version="1.0"?>
<svg xmlns="http://www.w3.org/2000/svg" xmlns:xlink="http://www.w3.org/1999/xlink" version="1.1" id="Capa_1" x="0px" y="0px" viewBox="0 0 512 512" style="enable-background:new 0 0 512 512;" xml:space="preserve" width="512px" height="512px" class=""><g transform="matrix(-1 -1.22465e-16 1.22465e-16 -1 512 512)"><g>
	<g>
		<path d="M494.933,162.133h-17.067v-76.8c0-9.412-7.654-17.067-17.067-17.067h-51.2V34.133c0-9.412-7.654-17.067-17.067-17.067    H119.467c-9.412,0-17.067,7.654-17.067,17.067v34.133H51.2c-9.412,0-17.067,7.654-17.067,17.067v76.8H17.067    C7.654,162.133,0,169.788,0,179.2v247.467c0,9.412,7.654,17.067,17.067,17.067h17.067v34.133c0,9.412,7.654,17.067,17.067,17.067    h51.2c9.412,0,17.067-7.654,17.067-17.067h273.067c0,9.412,7.654,17.067,17.067,17.067h51.2c9.412,0,17.067-7.654,17.067-17.067    v-34.133h17.067c9.412,0,17.067-7.654,17.067-17.067V179.2C512,169.788,504.346,162.133,494.933,162.133z M51.2,85.333h51.2V128    v34.133H51.2V85.333z M102.409,477.867H51.2v-34.133h51.2v25.6c0,0.017,0.008,0.034,0.008,0.051V477.867z M392.533,460.8H119.467    v-17.067h17.067c9.412,0,17.067-7.654,17.067-17.067v-230.4h204.8v230.4c0,9.412,7.654,17.067,17.067,17.067h17.067V460.8z     M392.533,162.133h-17.067c-9.412,0-17.067,7.654-17.067,17.067H153.6c0-9.412-7.654-17.067-17.067-17.067h-17.067v-25.6h273.067    V162.133z M409.6,128V85.333h51.2v76.8h-51.2V128z M409.6,477.867v-8.533v-25.6h51.2l0.009,34.133H409.6z" data-original="#000000" class="" data-old_color="#000000" fill="#009D37"/>
	</g>
</g></g> </svg>
