<svg xmlns="http://www.w3.org/2000/svg" x="0px" y="0px"
width="50" height="50"
viewBox="0 0 172 172"
style=" fill:#000000;"><g fill="none" fill-rule="nonzero" stroke="none" stroke-width="1" stroke-linecap="butt" stroke-linejoin="miter" stroke-miterlimit="10" stroke-dasharray="" stroke-dashoffset="0" font-family="none" font-weight="none" font-size="none" text-anchor="none" style="mix-blend-mode: normal"><path d="M0,172v-172h172v172z" fill="none"></path><g><path d="M132.44,20.64c-0.94993,0 -1.72,0.77007 -1.72,1.72c0,0.94993 0.77007,1.72 1.72,1.72c0.94993,0 1.72,-0.77007 1.72,-1.72c0,-0.94993 -0.77007,-1.72 -1.72,-1.72z" fill="#000000"></path><path d="M86,22.36c-35.1474,0 -63.64,28.4926 -63.64,63.64c0,35.1474 28.4926,63.64 63.64,63.64c35.1474,0 63.64,-28.4926 63.64,-63.64c0,-35.1474 -28.4926,-63.64 -63.64,-63.64z" fill="#0f3272"></path><path d="M142.76,18.92c-3.79972,0 -6.88,3.08028 -6.88,6.88c0,3.79972 3.08028,6.88 6.88,6.88c3.79972,0 6.88,-3.08028 6.88,-6.88c0,-3.79972 -3.08028,-6.88 -6.88,-6.88z" fill="#000000"></path><path d="M149.64,37.84c-1.89986,0 -3.44,1.54014 -3.44,3.44c0,1.89986 1.54014,3.44 3.44,3.44c1.89986,0 3.44,-1.54014 3.44,-3.44c0,-1.89986 -1.54014,-3.44 -3.44,-3.44z" fill="#e74c3c"></path><path d="M139.32,127.28c-1.89986,0 -3.44,1.54014 -3.44,3.44c0,1.89986 1.54014,3.44 3.44,3.44c1.89986,0 3.44,-1.54014 3.44,-3.44c0,-1.89986 -1.54014,-3.44 -3.44,-3.44zM25.8,101.48c-3.79972,0 -6.88,3.08028 -6.88,6.88c0,3.79972 3.08028,6.88 6.88,6.88c3.79972,0 6.88,-3.08028 6.88,-6.88c0,-3.79972 -3.08028,-6.88 -6.88,-6.88z" fill="#fbcd59"></path><path d="M43,146.2c-1.89986,0 -3.44,1.54014 -3.44,3.44c0,1.89986 1.54014,3.44 3.44,3.44c1.89986,0 3.44,-1.54014 3.44,-3.44c0,-1.89986 -1.54014,-3.44 -3.44,-3.44z" fill="#e74c3c"></path><path d="M31.82,84.28c-2.37482,0 -4.3,1.92518 -4.3,4.3c0,2.37482 1.92518,4.3 4.3,4.3c2.37482,0 4.3,-1.92518 4.3,-4.3c0,-2.37482 -1.92518,-4.3 -4.3,-4.3zM136.74,55.04c-1.42489,0 -2.58,1.15511 -2.58,2.58c0,1.42489 1.15511,2.58 2.58,2.58c1.42489,0 2.58,-1.15511 2.58,-2.58c0,-1.42489 -1.15511,-2.58 -2.58,-2.58z" fill="#ffffff"></path><path d="M117.53276,61.09612c-8.34372,-8.48648 -13.11156,-13.33516 -21.457,-21.82164h-19.93824h-9.6492h-3.0014h-1.34332c-5.08948,0 -9.2536,4.23464 -9.2536,9.41012v66.31804c0,5.1772 4.16412,9.41012 9.2536,9.41012h17.8364h10.17724h13.33h4.79192c5.08948,0 9.2536,-4.23636 9.2536,-9.41012v-4.2054v-13.90276v-12.61448v-23.18388z" fill="#ffffff"></path><path d="M97.18,125.61676h-35.0364c-5.76716,0 -10.4576,-4.76268 -10.4576,-10.61412v-66.31804c0,-5.85316 4.69216,-10.61584 10.4576,-10.61584h33.93388c0.32336,0 0.63296,0.129 0.85828,0.35948l21.457,21.82336c0.22188,0.22704 0.34572,0.52976 0.34572,0.84452l-0.00172,43.82388c0,0.66564 -0.53836,1.204 -1.204,1.204v0c-0.66564,0 -1.204,-0.53836 -1.204,-1.204v-43.33196l-20.75696,-21.11128h-33.4282c-4.43932,0 -8.0496,3.68252 -8.0496,8.20612v66.31976c0,4.52532 3.61028,8.20612 8.0496,8.20612h35.0364c0.66564,0 1.204,0.53836 1.204,1.204c0,0.66564 -0.53836,1.204 -1.204,1.204zM108.27916,125.61676h-4.79192c-0.66564,0 -1.204,-0.53836 -1.204,-1.204c0,-0.66564 0.53836,-1.204 1.204,-1.204h4.79192c4.43932,0 8.0496,-3.6808 8.0496,-8.20612v-4.2054c0,-0.66564 0.53836,-1.204 1.204,-1.204c0.66564,0 1.204,0.53836 1.204,1.204v4.2054c0,5.85316 -4.69216,10.61412 -10.4576,10.61412z" fill="#333333"></path><path d="M95.46,39.56v12.12084c0,5.15828 4.14004,9.37916 9.20028,9.37916h12.29972" fill="#ecf0f1"></path><path d="M116.96,61.92h-12.29972c-5.547,0 -10.06028,-4.59412 -10.06028,-10.23916v-12.12084h1.72v12.12084c0,4.69732 3.741,8.51916 8.34028,8.51916h12.29972zM94.6,118.68h-30.96c-2.84488,0 -5.16,-2.31512 -5.16,-5.16v-61.92c0,-2.84488 2.31512,-5.16 5.16,-5.16h25.8c0.47472,0 0.86,0.38528 0.86,0.86c0,0.47472 -0.38528,0.86 -0.86,0.86h-25.8c-1.89716,0 -3.44,1.54284 -3.44,3.44v61.92c0,1.89716 1.54284,3.44 3.44,3.44h30.96c0.47472,0 0.86,0.38528 0.86,0.86c0,0.47472 -0.38528,0.86 -0.86,0.86zM110.94,89.44c-0.47472,0 -0.86,-0.38528 -0.86,-0.86v-12.04c0,-0.47472 0.38528,-0.86 0.86,-0.86c0.47472,0 0.86,0.38528 0.86,0.86v12.04c0,0.47472 -0.38528,0.86 -0.86,0.86zM110.94,73.53c-0.47472,0 -0.86,-0.38528 -0.86,-0.86v-4.44276c0,-0.47472 0.38528,-0.86 0.86,-0.86c0.47472,0 0.86,0.38528 0.86,0.86v4.44276c0,0.47472 -0.38528,0.86 -0.86,0.86z" fill="#333333"></path><path d="M83.42,68.37h-17.2c-0.23736,0 -0.43,-0.19264 -0.43,-0.43c0,-0.23736 0.19264,-0.43 0.43,-0.43h17.2c0.23736,0 0.43,0.19264 0.43,0.43c0,0.23736 -0.19264,0.43 -0.43,0.43zM83.42,75.25h-17.2c-0.23736,0 -0.43,-0.19264 -0.43,-0.43c0,-0.23736 0.19264,-0.43 0.43,-0.43h17.2c0.23736,0 0.43,0.19264 0.43,0.43c0,0.23736 -0.19264,0.43 -0.43,0.43z" fill="#333333"></path><g fill="#333333"><path d="M83.42,82.13h-17.2c-0.23736,0 -0.43,-0.19264 -0.43,-0.43c0,-0.23736 0.19264,-0.43 0.43,-0.43h17.2c0.23736,0 0.43,0.19264 0.43,0.43c0,0.23736 -0.19264,0.43 -0.43,0.43z"></path></g><g fill="#333333"><path d="M78.26,89.01h-12.04c-0.23736,0 -0.43,-0.19264 -0.43,-0.43c0,-0.23736 0.19264,-0.43 0.43,-0.43h12.04c0.23736,0 0.43,0.19264 0.43,0.43c0,0.23736 -0.19264,0.43 -0.43,0.43z"></path></g><g fill="#333333"><path d="M83.42,95.89h-17.2c-0.23736,0 -0.43,-0.19264 -0.43,-0.43c0,-0.23736 0.19264,-0.43 0.43,-0.43h17.2c0.23736,0 0.43,0.19264 0.43,0.43c0,0.23736 -0.19264,0.43 -0.43,0.43z"></path></g><g fill="#333333"><path d="M93.74,102.77h-27.52c-0.23736,0 -0.43,-0.19264 -0.43,-0.43c0,-0.23736 0.19264,-0.43 0.43,-0.43h27.52c0.23736,0 0.43,0.19264 0.43,0.43c0,0.23736 -0.19264,0.43 -0.43,0.43z"></path></g><g fill="#333333"><path d="M104.06,89.01h-22.36c-0.23736,0 -0.43,-0.19264 -0.43,-0.43c0,-0.23736 0.19264,-0.43 0.43,-0.43h22.36c0.23736,0 0.43,0.19264 0.43,0.43c0,0.23736 -0.19264,0.43 -0.43,0.43z"></path></g><g fill="#333333"><path d="M100.62,95.89h-13.76c-0.23736,0 -0.43,-0.19264 -0.43,-0.43c0,-0.23736 0.19264,-0.43 0.43,-0.43h13.76c0.23736,0 0.43,0.19264 0.43,0.43c0,0.23736 -0.19264,0.43 -0.43,0.43z"></path></g><g><path d="M88.58,84.28v-16.34h15.48v15.48h-9.46" fill="#ecf0f1"></path><path d="M89.01,84.28h-0.86v-16.77h16.34v16.34h-9.89v-0.86h9.03v-14.62h-14.62z" fill="#333333"></path></g><g><path d="M108.36,99.244c-8.83435,0 -15.996,7.16165 -15.996,15.996c0,8.83435 7.16165,15.996 15.996,15.996c8.83435,0 15.996,-7.16165 15.996,-15.996c0,-8.83435 -7.16165,-15.996 -15.996,-15.996z" fill="#ffa30e"></path><path d="M108.36,100.448c8.15624,0 14.792,6.63576 14.792,14.792c0,8.15624 -6.63576,14.792 -14.792,14.792c-8.15624,0 -14.792,-6.63576 -14.792,-14.792c0,-8.15624 6.63576,-14.792 14.792,-14.792M108.36,98.04c-9.49956,0 -17.2,7.70044 -17.2,17.2c0,9.49956 7.70044,17.2 17.2,17.2c9.49956,0 17.2,-7.70044 17.2,-17.2c0,-9.49956 -7.70044,-17.2 -17.2,-17.2z" fill="#333333"></path></g><g><path d="M116.1,112.66h-5.16v-5.16c0,-1.42416 -1.15412,-2.58 -2.58,-2.58c-1.42588,0 -2.58,1.15584 -2.58,2.58v5.16h-5.16c-1.42416,0 -2.58,1.15412 -2.58,2.58c0,1.42588 1.15584,2.58 2.58,2.58h5.16v5.16c0,1.42416 1.15412,2.58 2.58,2.58c1.42588,0 2.58,-1.15584 2.58,-2.58v-5.16h5.16c1.42416,0 2.58,-1.15412 2.58,-2.58c0,-1.42588 -1.15584,-2.58 -2.58,-2.58z" fill="#ffffff"></path><path d="M108.36,125.99c-1.6598,0 -3.01,-1.3502 -3.01,-3.01v-4.73h-4.73c-1.6598,0 -3.01,-1.3502 -3.01,-3.01c0,-1.6598 1.3502,-3.01 3.01,-3.01h4.73v-4.73c0,-1.6598 1.3502,-3.01 3.01,-3.01c1.6598,0 3.01,1.3502 3.01,3.01v4.73h4.73c1.6598,0 3.01,1.3502 3.01,3.01c0,1.6598 -1.3502,3.01 -3.01,3.01h-4.73v4.73c0,1.6598 -1.3502,3.01 -3.01,3.01zM100.62,113.09c-1.18508,0 -2.15,0.96492 -2.15,2.15c0,1.18508 0.96492,2.15 2.15,2.15h5.59v5.59c0,1.18508 0.96492,2.15 2.15,2.15c1.18508,0 2.15,-0.96492 2.15,-2.15v-5.59h5.59c1.18508,0 2.15,-0.96492 2.15,-2.15c0,-1.18508 -0.96492,-2.15 -2.15,-2.15h-5.59v-5.59c0,-1.18508 -0.96492,-2.15 -2.15,-2.15c-1.18508,0 -2.15,0.96492 -2.15,2.15v5.59z" fill="#333333"></path></g></g></g></svg>