<svg xmlns="http://www.w3.org/2000/svg" x="0px" y="0px"
width="50" height="50"
viewBox="0 0 172 172"
style=" fill:#000000;"><g fill="none" fill-rule="nonzero" stroke="none" stroke-width="1" stroke-linecap="butt" stroke-linejoin="miter" stroke-miterlimit="10" stroke-dasharray="" stroke-dashoffset="0" font-family="none" font-weight="none" font-size="none" text-anchor="none" style="mix-blend-mode: normal"><path d="M0,172v-172h172v172z" fill="none"></path><g><path d="M132.44,20.64c-0.94993,0 -1.72,0.77007 -1.72,1.72c0,0.94993 0.77007,1.72 1.72,1.72c0.94993,0 1.72,-0.77007 1.72,-1.72c0,-0.94993 -0.77007,-1.72 -1.72,-1.72z" fill="#f1bc19"></path><path d="M86,22.36c-35.1474,0 -63.64,28.4926 -63.64,63.64c0,35.1474 28.4926,63.64 63.64,63.64c35.1474,0 63.64,-28.4926 63.64,-63.64c0,-35.1474 -28.4926,-63.64 -63.64,-63.64z" fill="#0f3272"></path><path d="M142.76,18.92c-3.79972,0 -6.88,3.08028 -6.88,6.88c0,3.79972 3.08028,6.88 6.88,6.88c3.79972,0 6.88,-3.08028 6.88,-6.88c0,-3.79972 -3.08028,-6.88 -6.88,-6.88z" fill="#f1bc19"></path><path d="M149.64,37.84c-1.89986,0 -3.44,1.54014 -3.44,3.44c0,1.89986 1.54014,3.44 3.44,3.44c1.89986,0 3.44,-1.54014 3.44,-3.44c0,-1.89986 -1.54014,-3.44 -3.44,-3.44z" fill="#e74c3c"></path><path d="M139.32,127.28c-1.89986,0 -3.44,1.54014 -3.44,3.44c0,1.89986 1.54014,3.44 3.44,3.44c1.89986,0 3.44,-1.54014 3.44,-3.44c0,-1.89986 -1.54014,-3.44 -3.44,-3.44zM25.8,101.48c-3.79972,0 -6.88,3.08028 -6.88,6.88c0,3.79972 3.08028,6.88 6.88,6.88c3.79972,0 6.88,-3.08028 6.88,-6.88c0,-3.79972 -3.08028,-6.88 -6.88,-6.88z" fill="#ffb100"></path><path d="M43,146.2c-1.89986,0 -3.44,1.54014 -3.44,3.44c0,1.89986 1.54014,3.44 3.44,3.44c1.89986,0 3.44,-1.54014 3.44,-3.44c0,-1.89986 -1.54014,-3.44 -3.44,-3.44z" fill="#e74c3c"></path><path d="M31.82,84.28c-2.37482,0 -4.3,1.92518 -4.3,4.3c0,2.37482 1.92518,4.3 4.3,4.3c2.37482,0 4.3,-1.92518 4.3,-4.3c0,-2.37482 -1.92518,-4.3 -4.3,-4.3zM136.74,55.04c-1.42489,0 -2.58,1.15511 -2.58,2.58c0,1.42489 1.15511,2.58 2.58,2.58c1.42489,0 2.58,-1.15511 2.58,-2.58c0,-1.42489 -1.15511,-2.58 -2.58,-2.58z" fill="#ffffff"></path><path d="M119.25448,120.47052c-0.71724,-3.80292 -2.26868,-6.03032 -5.92196,-7.13284c-0.15824,-0.04816 -0.37152,-0.12556 -0.61232,-0.21672c-0.27692,-0.1204 -0.6278,-0.26144 -1.03888,-0.4214c-2.21364,-0.93568 -15.36992,-5.78952 -15.36992,-5.78952c-1.0836,-0.2752 -1.79052,-1.04748 -2.19816,-1.9178c-0.67424,-1.4362 -0.4128,-5.16516 -0.4128,-5.16516c0,0 -5.50056,1.88168 -8.93368,2.52324c-3.36604,0.3268 -10.6038,-4.02652 -10.6038,-4.02652c0,0 -0.17028,5.38188 -0.39904,6.57728c-0.1806,0.93912 -1.19196,1.73204 -2.27556,2.00724l-12.62308,4.57692c-1.39664,0.36464 -2.73652,0.8858 -3.91472,1.61336c-3.17684,1.9608 -4.78676,4.90544 -5.60548,7.37192c0,0 -0.83076,5.87552 -0.79808,6.08708c-0.07912,0.82216 -0.15996,1.72688 -0.24252,2.67804c13.76,9.31552 24.80928,11.92476 43.76884,11.09572c8.61548,-0.37668 21.44152,-4.63024 28.15984,-8.02208c-0.3526,-7.48372 -0.97868,-11.83876 -0.97868,-11.83876z" fill="#ce9065"></path><path d="M119.42648,120.68208c-0.71724,-3.80292 -2.26868,-6.03032 -5.92196,-7.13284c-0.15824,-0.04816 -0.37152,-0.12556 -0.61232,-0.21672c-0.27692,-0.1204 -0.6278,-0.26144 -1.03888,-0.4214c-1.19884,-0.5074 -12.98428,-4.61992 -16.77172,-6.03032c-5.1686,3.64296 -7.49404,5.04476 -10.94264,5.04476c-3.67736,0 -5.78952,-2.22568 -10.9134,-5.31652l-5.7362,2.11732c-0.01376,-0.00688 -0.02924,-0.01548 -0.043,-0.02236l-0.55728,0.1462l-7.8518,2.8466c-1.39664,0.36464 -2.73652,0.8858 -3.91472,1.61336c-3.17684,1.9608 -4.78676,4.90544 -5.60548,7.37192c0,0 -0.83076,5.87552 -0.79808,6.08708c-0.07912,0.82216 -0.15996,9.64748 -0.24252,10.59864c13.76,9.31552 24.80928,11.92476 43.76884,11.09572c8.61376,-0.37668 21.44152,-4.63024 28.15984,-8.02208c-0.3526,-7.48544 -0.97868,-19.75936 -0.97868,-19.75936z" fill="#78a0cf"></path><path d="M96.35956,125.3364c-1.30032,-1.634 -2.20848,-3.52944 -3.52772,-5.14452c-0.3182,-0.39044 -0.34228,-0.86688 0,-1.25388c0.74304,-0.83764 1.77676,-1.26248 2.79156,-1.68216c1.11628,-0.46096 2.19816,-0.96492 3.32648,-1.37944c-0.71208,-2.95668 -2.11904,-5.633 -3.87516,-8.10292c-0.2322,-0.3268 -0.18576,-0.645 -0.0086,-0.88408c-5.15656,3.63264 -7.48028,5.03272 -10.92544,5.03272c-3.51396,0 -5.62956,-2.04508 -10.28044,-4.92264c-0.43344,2.69524 -2.881,6.33476 -1.06812,8.98184c0.71724,1.04576 2.18784,1.40696 2.66428,2.69524c0.67596,1.82492 -0.3354,4.4548 -0.38356,6.31412c-0.09804,3.7754 0.94084,6.6048 2.34952,10.00868c0.06192,0.14964 0.07224,0.2838 0.05676,0.40592c1.12832,2.24116 2.40112,4.55456 3.2508,6.88c0.74476,2.0382 1.19024,4.15896 1.69764,6.25908c0.90816,0.03096 1.84212,0.04644 2.78812,0.05332c0.84452,-4.05576 3.16308,-7.99112 4.773,-11.78372c1.76472,-4.1538 3.42108,-8.04616 6.37088,-11.47756z" fill="#fdfcef"></path><path d="M61.447,144.10676c-0.35604,0 -0.645,-0.28896 -0.645,-0.645v-5.31652c0,-0.35604 0.28896,-0.645 0.645,-0.645c0.35604,0 0.645,0.28896 0.645,0.645v5.31652c0,0.35604 -0.28896,0.645 -0.645,0.645zM107.52064,145.87836c-0.35604,0 -0.645,-0.28896 -0.645,-0.645v-7.08812c0,-0.35604 0.28896,-0.645 0.645,-0.645c0.35604,0 0.645,0.28896 0.645,0.645v7.08812c0,0.35776 -0.28896,0.645 -0.645,0.645zM93.93264,105.23992c0,0 4.18992,1.7802 7.23604,11.57216l-7.23604,2.67116l4.66636,5.34404l-13.78752,24.02668c0,-0.00344 6.65124,-24.52032 9.12116,-43.61404zM73.93248,105.23992c0,0 -4.1882,1.7802 -7.23776,11.57216l7.23776,2.67116l-4.66464,5.34404l13.55188,24.02668c0,-0.00344 -6.4156,-24.52032 -8.88724,-43.61404z" fill="#568bc1"></path><path d="M105.60284,73.46464c-0.2064,-0.01376 -0.41796,-0.0172 -0.63812,-0.01548c-1.7114,-0.08256 -2.19816,0.60028 -2.11904,-0.45924c0.1376,-1.87824 -0.12384,-9.49956 -0.12384,-9.88484c0,-7.89652 -8.24568,-14.33792 -19.12468,-14.69568v-0.02408c0.5074,0.00172 0.4386,0.01032 0.3698,0.01204c-0.07052,-0.00172 -0.1376,-0.01032 1.4018,-0.01204v0.02408c-11.91272,0.35776 -20.15668,6.79744 -20.15668,14.69568c0,0.38528 -0.26144,8.00488 -0.12384,9.88484c0.0774,1.0578 -0.40936,0.37668 -2.11904,0.45924c-0.21844,0 -0.43,0.00172 -0.63812,0.01548c-1.8748,0.12556 -3.39184,1.31752 -3.7152,2.795c0.22876,0.13932 1.0836,6.61168 2.46648,9.16244c0.77228,1.42416 1.978,1.62196 3.2164,2.54044c0.68628,0.50912 0.81872,1.0836 1.0062,1.84556c0.69488,2.81736 2.62472,5.21332 4.7386,7.2584c1.04404,1.00964 7.9722,8.39532 13.92512,8.02208c5.98044,-0.2236 12.88108,-7.01244 13.92512,-8.02208c2.1156,-2.04508 4.04372,-4.43932 4.7386,-7.2584c0.18748,-0.76196 0.31992,-1.33644 1.0062,-1.84556c1.2384,-0.91848 2.44412,-1.11628 3.2164,-2.54044c1.38288,-2.54904 2.236,-9.0214 2.46648,-9.16244c-0.3268,-1.47748 -1.84384,-2.67116 -3.71864,-2.795z" fill="#db9e71"></path><path d="M84.0736,85.97248c1.20916,0 2.3822,-0.52804 3.13728,-1.41212c0.07568,-0.08944 0.06536,-0.2236 -0.02236,-0.29928v0c-0.08772,-0.07568 -0.22188,-0.06708 -0.29928,0.02064c-0.61576,0.70348 -1.6426,1.10768 -2.81564,1.10768c-1.17476,0 -2.2016,-0.4042 -2.81564,-1.10768c-0.04128,-0.04816 -0.10148,-0.07224 -0.15996,-0.07224c-0.04988,0 -0.09804,0.0172 -0.13932,0.0516c-0.08772,0.07568 -0.09804,0.21156 -0.02236,0.29928c0.75508,0.88408 1.92812,1.41212 3.13728,1.41212zM80.21392,69.62388l0.76712,-1.47404c-3.24736,-0.76024 -6.9832,-0.63984 -10.06888,0.3182l0.96836,1.4362c2.53528,-0.83764 5.65364,-0.94256 8.3334,-0.28036zM96.46792,69.62388l0.76712,-1.47404c-3.24736,-0.76024 -6.9832,-0.63984 -10.06888,0.3182l0.96836,1.4362c2.53528,-0.83764 5.65364,-0.94256 8.3334,-0.28036zM75.54068,71.70508c-0.77916,0 -1.46372,0.516 -1.85932,1.29516c0.09804,-0.03096 0.20124,-0.0516 0.30788,-0.0516c0.63984,0 1.15756,0.57792 1.15756,1.29344c0,0.71552 -0.51772,1.29344 -1.15756,1.29344c-0.20984,0 -0.40248,-0.06708 -0.57276,-0.17544c0.27348,1.17132 1.11972,2.02444 2.1242,2.02444c1.22464,0 2.21708,-1.27108 2.21708,-2.838c0.00172,-1.57036 -0.99072,-2.84144 -2.21708,-2.84144zM92.51192,71.70508c-0.66564,0 -1.26076,0.37668 -1.66668,0.9718c0.12728,-0.05332 0.26316,-0.086 0.40764,-0.086c0.63984,0 1.15756,0.57792 1.15756,1.29344c0,0.7138 -0.51772,1.29344 -1.15756,1.29344c-0.39732,0 -0.74648,-0.2236 -0.9546,-0.56244c0.02924,1.53596 1.00792,2.7692 2.21536,2.7692c1.22464,0 2.2188,-1.27108 2.2188,-2.838c-0.00172,-1.57036 -0.99416,-2.84144 -2.22052,-2.84144zM93.45276,89.26284c0.09116,-0.07396 0.10492,-0.20812 0.03096,-0.29756v0c-0.07396,-0.09116 -0.20812,-0.10664 -0.29928,-0.03268c-2.00036,1.59444 -5.31996,2.50776 -9.11084,2.50776c-3.79088,0 -7.11048,-0.91504 -9.11084,-2.50776c-0.03956,-0.03096 -0.086,-0.04644 -0.13244,-0.04644c-0.06192,0 -0.12384,0.02752 -0.16684,0.07912c-0.07396,0.09116 -0.0602,0.22532 0.03096,0.29928c2.25836,1.84556 5.76372,2.94636 9.37916,2.94636c3.61544,-0.00172 7.1208,-1.10252 9.37916,-2.94808z" fill="#512c2b"></path><g fill="#472b29"><path d="M85.9484,149.5712c-15.78272,0 -25.96512,-3.15448 -38.1238,-11.3864c-0.258,-0.17544 -0.40076,-0.47472 -0.37496,-0.78604c0.0172,-0.19092 0.0258,-0.8428 0.03784,-1.7888c0.05676,-3.86312 0.17716,-11.90412 1.02856,-15.04828c1.15928,-4.2742 2.85348,-5.94776 5.98388,-7.87932c1.17304,-0.7224 2.56796,-1.2986 4.14864,-1.71312l12.5474,-4.55284c0.89956,-0.23392 1.62024,-0.82044 1.72516,-1.36052c0.086,-0.4472 0.18232,-1.75612 0.27176,-3.6292c-1.82492,-1.28828 -3.31616,-2.45444 -3.75132,-2.87928c-2.76232,-2.7004 -4.34128,-5.16344 -4.97424,-7.75376c-0.19608,-0.7998 -0.28036,-1.07672 -0.68628,-1.38288c-0.3698,-0.2752 -0.73616,-0.47988 -1.08532,-0.67768c-0.8514,-0.4816 -1.73376,-0.97868 -2.37188,-2.17408c-1.48264,-2.76576 -2.56796,-7.998 -2.56796,-9.66984c0,-0.0602 0.00688,-0.1204 0.02064,-0.1806c0.41108,-1.91092 2.26008,-3.35228 4.49608,-3.50536c0.22876,-0.01548 0.45924,-0.0172 0.69488,-0.0172c0.49708,-0.02924 0.91332,0.01376 1.24012,0.05848c-0.06536,-2.12592 0.06192,-6.6822 0.1204,-8.73416c0.01376,-0.51256 0.02408,-0.8514 0.02408,-0.92536c0,-8.01176 7.52328,-14.43252 17.84156,-15.56084c0.14792,-0.11352 0.32852,-0.18232 0.51772,-0.18232c0,0 0,0 0.00172,0c0.4988,0 0.89096,0.00172 1.19196,0.02408c0.02752,-0.00344 0.05332,-0.00516 0.08084,-0.0086v-0.00344v0.00344c0.16512,-0.01376 0.33368,-0.01548 0.49536,-0.01548h0.00172c0.18748,0 0.3698,0.06192 0.51772,0.17372c10.73968,1.09736 18.58116,7.52844 18.58116,15.57116c0,0.07396 0.01032,0.4128 0.02408,0.92536c0.05848,2.0984 0.19092,6.80432 0.11868,8.73416c0.3268,-0.04472 0.75336,-0.09116 1.28312,-0.05676c0.1892,0 0.42656,0.00172 0.65016,0.01548c2.23944,0.15308 4.08844,1.59444 4.49952,3.50536c0.01376,0.0602 0.02064,0.1204 0.02064,0.1806c0,1.9264 -1.15068,7.0262 -2.56796,9.66984c-0.63812,1.19368 -1.52048,1.69076 -2.37188,2.17408c-0.34916,0.19608 -0.71552,0.40076 -1.08532,0.6794c-0.40592,0.30444 -0.4902,0.58136 -0.67596,1.33644c-0.64328,2.63332 -2.22224,5.09636 -4.98284,7.79504c-0.45408,0.44204 -2.0554,1.74752 -3.98008,3.13728c-0.00688,1.52908 0.13244,2.73136 0.38012,3.2594c0.25112,0.53664 0.73788,1.22292 1.63056,1.44996c0.62264,0.22532 13.28528,4.89856 15.49204,5.8308c0.40076,0.15824 0.75852,0.30272 1.04232,0.42484c0.18748,0.07052 0.38356,0.14104 0.52804,0.18576c3.74788,1.13004 5.69836,3.46408 6.51364,7.79504c0.00688,0.03784 0.01204,0.0774 0.01376,0.11524c0,0 0.62608,12.27564 0.9804,19.7628c0.0172,0.33884 -0.16856,0.65532 -0.46956,0.8084c-7.16208,3.61544 -20.0982,7.74516 -28.51072,8.11496c-2.15172,0.09116 -4.20368,0.14104 -6.1662,0.14104zM49.1834,137.02552c13.1408,8.80468 24.01636,11.5154 42.85552,10.68292c7.99112,-0.34916 20.22204,-4.20884 27.31188,-7.68324c-0.344,-7.20852 -0.90472,-18.23716 -0.95288,-19.13672c-0.70348,-3.6722 -2.19644,-5.47304 -5.3148,-6.41388c-0.17716,-0.05332 -0.40764,-0.1376 -0.67252,-0.23908c-0.30272,-0.129 -0.64328,-0.2666 -1.04404,-0.42312c-2.18956,-0.92536 -15.222,-5.7362 -15.35272,-5.78436c-1.11972,-0.27864 -2.10184,-1.1266 -2.67976,-2.35812c-0.39904,-0.8514 -0.58136,-2.34952 -0.53836,-4.45308c0.00516,-0.27004 0.13932,-0.5246 0.3612,-0.68112c2.15172,-1.53424 3.77712,-2.87584 4.13144,-3.22156c2.52152,-2.46648 3.95256,-4.66636 4.50468,-6.92816c0.20468,-0.83764 0.4042,-1.6598 1.32612,-2.34952c0.43172,-0.32508 0.86,-0.56932 1.26936,-0.80152c0.75336,-0.42484 1.2986,-0.73272 1.7028,-1.4878c1.33644,-2.49572 2.32372,-7.14316 2.36156,-8.76168c-0.28896,-1.10768 -1.4964,-1.97112 -2.91196,-2.06572c-0.18404,-0.01204 -0.3784,-0.01376 -0.57792,-0.01376c-0.57792,-0.02236 -0.9718,0.03612 -1.28656,0.08428c-0.43344,0.07224 -0.9202,0.1462 -1.32784,-0.23048c-0.42312,-0.39044 -0.38356,-0.96492 -0.36292,-1.24184c0.10836,-1.48952 -0.043,-6.91612 -0.10148,-8.95948c-0.01548,-0.54008 -0.0258,-0.89612 -0.0258,-0.97352c0,-7.42524 -7.77612,-13.31796 -18.23888,-13.9578c-10.06716,0.645 -17.54916,6.53772 -17.54916,13.9578c0,0.0774 -0.01032,0.43344 -0.0258,0.97352c-0.05676,2.04336 -0.20984,7.46996 -0.10148,8.95948c0.02064,0.27692 0.0602,0.8514 -0.36292,1.24184c-0.40764,0.37496 -0.89612,0.29928 -1.32784,0.23048c-0.31304,-0.04816 -0.70176,-0.10664 -1.24528,-0.086c-0.24252,0.00172 -0.43516,0.00344 -0.62264,0.01548c-1.41212,0.09632 -2.61956,0.95976 -2.90852,2.064c0.04128,1.6082 1.09564,6.40012 2.36156,8.7634c0.4042,0.75508 0.94944,1.06296 1.7028,1.4878c0.40936,0.2322 0.83764,0.47472 1.26936,0.7998c0.9202,0.69144 1.11972,1.5136 1.3158,2.30652c0.56244,2.30824 1.99348,4.50812 4.515,6.9746c0.35432,0.34572 1.91608,1.57208 3.9216,2.97388c0.24252,0.17028 0.38012,0.44892 0.36808,0.74304c-0.1032,2.29964 -0.20984,3.76336 -0.32336,4.34816c-0.27004,1.40696 -1.65636,2.35984 -2.90852,2.67804l-12.54052,4.55112c-1.49296,0.3956 -2.73136,0.90472 -3.7582,1.5394c-2.85004,1.75784 -4.2054,3.10116 -5.22708,6.86452c-0.79464,2.93432 -0.91504,11.12668 -0.96836,14.62344c-0.00516,0.57448 -0.01204,1.0492 -0.02064,1.38804z"></path></g><g fill="#795335"><path d="M105.69744,82.11108l-1.02512,-0.11352l0.35604,-3.18028l-1.81632,0.78604l-0.40764,-0.94772l2.63332,-1.14036c0.17028,-0.07052 0.36636,-0.04988 0.51256,0.05848c0.14792,0.10836 0.22704,0.28896 0.20468,0.47128z"></path></g><g fill="#795335"><path d="M62.8144,81.50564l-0.45924,-4.06608c-0.02236,-0.18232 0.05676,-0.36292 0.20468,-0.47128c0.1462,-0.11008 0.34228,-0.13416 0.51256,-0.05848l2.63332,1.14208l-0.40936,0.94772l-1.81632,-0.78776l0.35776,3.182z"></path></g><g fill="#472b29"><path d="M65.1708,89.36776c-0.00172,0 -0.00516,0 -0.00688,0c-0.1892,-0.00344 -0.34056,-0.16168 -0.33712,-0.35088l0.2924,-15.32348c0.00344,-0.18748 0.15824,-0.33712 0.344,-0.33712c0.00172,0 0.00516,0 0.00688,0c0.1892,0.00344 0.34056,0.16168 0.33712,0.35088l-0.2924,15.32348c-0.00344,0.18748 -0.15824,0.33712 -0.344,0.33712z"></path></g><g fill="#472b29"><path d="M103.05724,89.36776c-0.18576,0 -0.34056,-0.14964 -0.344,-0.33712l-0.2924,-15.32348c-0.00344,-0.1892 0.14792,-0.34744 0.33712,-0.35088c0.00172,0 0.00516,0 0.00688,0c0.18576,0 0.34056,0.14964 0.344,0.33712l0.2924,15.32348c0.00344,0.1892 -0.14792,0.34744 -0.33712,0.35088c-0.00172,0 -0.00516,0 -0.00688,0z"></path></g><g fill="#000000"><path d="M110.32252,59.86116c-4.00244,0.2924 -6.51708,-4.50468 -9.12804,-8.04444c-6.36572,-8.6258 -17.51304,-11.30556 -26.78556,-6.33304c-2.4682,1.32268 -4.4462,2.73824 -5.01724,4.02136c-4.68872,1.99348 -7.32032,8.084 -8.35404,13.9406c-1.20572,6.83356 4.5838,17.40812 4.9278,11.524c0.24768,-4.24668 1.83524,-10.18412 3.44,-13.87696c0.72068,-1.6598 1.37772,-3.41764 1.849,-5.23568c0.55384,4.41696 6.321,8.61892 9.93644,8.65676c0.38528,0.00344 0.56244,-1.52048 0.45924,-3.59824c0.94428,1.6942 2.2876,3.11492 3.784,4.1624c2.35124,1.64604 5.05852,2.47164 7.75892,3.05128c-0.95632,-0.40076 -1.5222,-1.58068 -1.69764,-2.7434c-0.09116,-0.60372 -0.09976,-1.21604 -0.09116,-1.83008c2.35812,1.63228 4.88824,2.83628 7.64368,2.93948c0.3182,0.01204 0.63812,0.00172 0.95632,-0.0172c1.42932,2.95496 1.92124,6.51192 2.06916,9.04376c0.344,5.88412 4.72484,-3.94568 3.52084,-10.77752c-0.0086,-0.04988 -0.01892,-0.10148 -0.02752,-0.15136c1.80428,-1.14036 3.45204,-2.74856 4.7558,-4.73172zM71.85128,52.71456c0.01032,-0.08256 0.01892,-0.16512 0.02752,-0.24596c0.03096,0.01032 0.05848,0.02064 0.08944,0.03096c-0.043,0.07052 -0.0774,0.14276 -0.11696,0.215z"></path></g><g fill="#472b29"><path d="M84.25936,106.02424c-3.60856,0 -9.66984,-4.62508 -9.93644,-4.83148c-0.18748,-0.14448 -0.2236,-0.41452 -0.07912,-0.60372c0.14448,-0.19092 0.41108,-0.22532 0.60372,-0.07912c0.06364,0.04988 6.5704,4.98284 9.7524,4.63368c3.24048,-0.387 8.44176,-4.21572 8.49336,-4.25528c0.18576,-0.13932 0.45752,-0.09976 0.602,0.09116c0.14104,0.1892 0.10148,0.46096 -0.09116,0.602c-0.22016,0.1634 -5.4352,4.00244 -8.90444,4.41524c-0.14104,0.01892 -0.28896,0.02752 -0.44032,0.02752z"></path></g><g><path d="M102.4432,141.1088c-0.22016,0 -0.44032,-0.08428 -0.60888,-0.25112c-0.3354,-0.3354 -0.3354,-0.88064 0,-1.21604l4.78848,-4.7902c0.3354,-0.3354 0.88064,-0.3354 1.21604,0c0.3354,0.3354 0.3354,0.88064 0,1.21604l-4.78848,4.7902c-0.16684,0.16856 -0.387,0.25112 -0.60716,0.25112z" fill="#472b29"></path><path d="M82.02508,160.89052l-0.22532,-0.22532c-1.81976,-1.81976 -1.81976,-4.7988 0,-6.61856l13.91136,-13.91136c1.81976,-1.81976 4.7988,-1.81976 6.61856,0l0.22532,0.22532c1.81976,1.81976 1.81976,4.7988 0,6.61856l-13.91136,13.91136c-1.81976,1.82148 -4.7988,1.82148 -6.61856,0z" fill="#e74c3c"></path><path d="M85.33436,163.11964c-1.41728,0 -2.83628,-0.54008 -3.91644,-1.62024v0l-0.22532,-0.22532c-2.1586,-2.16032 -2.1586,-5.67428 0,-7.8346l13.91136,-13.91136c2.15688,-2.1586 5.67256,-2.16204 7.83632,0l0.22532,0.22532c1.0406,1.0406 1.61508,2.4338 1.61508,3.91644c0,1.48436 -0.57448,2.87584 -1.6168,3.91816l-13.90964,13.91136c-1.08188,1.08016 -2.50088,1.62024 -3.91988,1.62024zM82.63224,160.28336c1.4878,1.48952 3.91472,1.48608 5.40424,0l13.90964,-13.91136c0.71896,-0.71724 1.11284,-1.677 1.11284,-2.70212c0,-1.0234 -0.39388,-1.98316 -1.11284,-2.7004l-0.22532,-0.22532c-1.48952,-1.48952 -3.91128,-1.48952 -5.40252,0l-13.91136,13.91136c-1.4878,1.48952 -1.4878,3.913 0,5.40252z" fill="#472b29"></path><path d="M101.93408,140.739c-1.58756,-1.58756 -4.08328,-1.69248 -5.54356,-0.2322l-0.26488,0.26488l0.57792,0.57792l5.19784,5.19784l0.26488,-0.26488c1.46028,-1.46028 1.35536,-3.95428 -0.2322,-5.54356z" fill="#e67e22"></path><path d="M101.90828,147.88904c-0.16512,0 -0.33024,-0.06364 -0.45752,-0.1892l-6.1576,-6.15932c-0.25112,-0.25112 -0.25112,-0.66048 0,-0.9116c0.25112,-0.25112 0.6622,-0.25112 0.91332,0l6.1576,6.15932c0.25112,0.25112 0.25112,0.66048 0,0.9116c-0.12384,0.12556 -0.29068,0.1892 -0.4558,0.1892z" fill="#472b29"></path><path d="M122.32984,103.4236c-9.35396,0 -16.93684,7.58288 -16.93684,16.93684c0,9.35396 7.58288,16.93684 16.93684,16.93684c9.35396,0 16.93684,-7.58288 16.93684,-16.93684c0,-9.35396 -7.58288,-16.93684 -16.93684,-16.93684z" fill="#77cbd2" opacity="0.74"></path><path d="M137.342,105.34828c-8.31448,-8.31448 -21.79584,-8.31448 -30.11032,0c-8.31448,8.31448 -8.31448,21.79584 0,30.11032c8.31448,8.31448 21.79584,8.31448 30.11032,0c8.3162,-8.31448 8.3162,-21.79584 0,-30.11032zM134.2632,132.3798c-6.6134,6.6134 -17.3376,6.6134 -23.951,0c-6.6134,-6.6134 -6.6134,-17.3376 0,-23.951c6.6134,-6.6134 17.3376,-6.6134 23.951,0c6.6134,6.6134 6.6134,17.3376 0,23.951z" fill="#fdfcef"></path><path d="M122.28684,142.54328c-5.67256,0 -11.34512,-2.1586 -15.66232,-6.47752c-8.63612,-8.63612 -8.63612,-22.68852 0,-31.32636c8.63784,-8.63784 22.69024,-8.6344 31.32636,0c8.63612,8.63612 8.63612,22.68852 0,31.32636c-4.31892,4.31892 -9.99148,6.47752 -15.66404,6.47752zM122.28684,99.9836c-5.23224,0 -10.46276,1.99004 -14.44628,5.97356c-7.96704,7.96532 -7.96704,20.92724 0,28.89428c7.96876,7.96532 20.92896,7.96188 28.89428,0c7.96704,-7.96532 7.96704,-20.92724 0,-28.89428c-3.98352,-3.9818 -9.21576,-5.97356 -14.448,-5.97356zM122.28684,138.20028c-4.75408,0 -9.22092,-1.85072 -12.5818,-5.2116c-3.36088,-3.36088 -5.2116,-7.82944 -5.2116,-12.58352c0,-4.75408 1.85072,-9.22264 5.2116,-12.58352c3.36088,-3.3626 7.82944,-5.21332 12.5818,-5.21332c4.75236,0 9.22264,1.85072 12.58352,5.21332c3.36088,3.36088 5.21332,7.82944 5.21332,12.58352c0,4.75408 -1.85244,9.22264 -5.21332,12.58352c-3.36088,3.36088 -7.82944,5.2116 -12.58352,5.2116zM122.28684,104.32832c-4.29312,0 -8.33168,1.67184 -11.36576,4.70936c-3.03752,3.0358 -4.70764,7.07264 -4.70764,11.36748c0,4.29484 1.67184,8.33168 4.70764,11.36748c3.0358,3.0358 7.07264,4.70764 11.36576,4.70764c4.29484,0 8.33168,-1.67184 11.36748,-4.70764c3.0358,-3.0358 4.70936,-7.07264 4.70936,-11.36748c0,-4.29484 -1.67356,-8.33168 -4.70936,-11.36748c-3.0358,-3.03752 -7.07264,-4.70936 -11.36748,-4.70936zM84.26452,162.3422c-0.09116,0 -0.17544,-0.05848 -0.20468,-0.14964l-2.36844,-7.3616c-0.03612,-0.1118 0.02752,-0.23392 0.13932,-0.27004c0.1118,-0.0344 0.23392,0.0258 0.27004,0.13932l2.36844,7.3616c0.03612,0.1118 -0.02752,0.23392 -0.13932,0.27004c-0.02236,0.00688 -0.04472,0.01032 -0.06536,0.01032zM85.76608,161.83136c-0.09288,0 -0.17888,-0.0602 -0.2064,-0.15308l-2.68664,-9.0214c-0.0344,-0.11352 0.03268,-0.23392 0.14448,-0.2666c0.12212,-0.03612 0.23564,0.03268 0.26832,0.14448l2.68664,9.0214c0.0344,0.11352 -0.03268,0.23392 -0.14448,0.2666c-0.02236,0.00688 -0.043,0.0086 -0.06192,0.0086z" fill="#472b29"></path><g fill="#472b29"><path d="M86.66908,158.6614c-0.09288,0 -0.17888,-0.0602 -0.2064,-0.15308l-2.24804,-7.54908c-0.0344,-0.11352 0.03268,-0.23392 0.14448,-0.2666c0.12556,-0.0344 0.23564,0.03268 0.26832,0.14448l2.24804,7.54908c0.0344,0.11352 -0.03268,0.23392 -0.14448,0.2666c-0.02064,0.00688 -0.04128,0.0086 -0.06192,0.0086z"></path></g><g fill="#472b29"><path d="M87.58412,155.35212c-0.09288,0 -0.17888,-0.0602 -0.2064,-0.15308l-1.58412,-5.32168c-0.0344,-0.11352 0.03268,-0.23392 0.14448,-0.2666c0.12212,-0.03612 0.23564,0.03268 0.26832,0.14448l1.58412,5.32168c0.0344,0.11352 -0.03268,0.23392 -0.14448,0.2666c-0.02064,0.00516 -0.04128,0.0086 -0.06192,0.0086z"></path></g></g></g></g></svg>