<svg xmlns="http://www.w3.org/2000/svg" x="0px" y="0px"
width="50" height="50"
viewBox="0 0 172 172"
style=" fill:#000000;"><g fill="none" fill-rule="nonzero" stroke="none" stroke-width="1" stroke-linecap="butt" stroke-linejoin="miter" stroke-miterlimit="10" stroke-dasharray="" stroke-dashoffset="0" font-family="none" font-weight="none" font-size="none" text-anchor="none" style="mix-blend-mode: normal"><path d="M0,172v-172h172v172z" fill="none"></path><g><path d="M22.36,46.44c-1.89986,0 -3.44,1.54014 -3.44,3.44c0,1.89986 1.54014,3.44 3.44,3.44c1.89986,0 3.44,-1.54014 3.44,-3.44c0,-1.89986 -1.54014,-3.44 -3.44,-3.44z" fill="#ee3e54"></path><path d="M132.44,20.64c-0.94993,0 -1.72,0.77007 -1.72,1.72c0,0.94993 0.77007,1.72 1.72,1.72c0.94993,0 1.72,-0.77007 1.72,-1.72c0,-0.94993 -0.77007,-1.72 -1.72,-1.72z" fill="#f1bc19"></path><path d="M86,22.36c-35.1474,0 -63.64,28.4926 -63.64,63.64c0,35.1474 28.4926,63.64 63.64,63.64c35.1474,0 63.64,-28.4926 63.64,-63.64c0,-35.1474 -28.4926,-63.64 -63.64,-63.64z" fill="#ffffff"></path><path d="M142.76,18.92c-3.79972,0 -6.88,3.08028 -6.88,6.88c0,3.79972 3.08028,6.88 6.88,6.88c3.79972,0 6.88,-3.08028 6.88,-6.88c0,-3.79972 -3.08028,-6.88 -6.88,-6.88z" fill="#f1bc19"></path><path d="M149.64,37.84c-1.89986,0 -3.44,1.54014 -3.44,3.44c0,1.89986 1.54014,3.44 3.44,3.44c1.89986,0 3.44,-1.54014 3.44,-3.44c0,-1.89986 -1.54014,-3.44 -3.44,-3.44z" fill="#ee3e54"></path><path d="M139.32,127.28c-1.89986,0 -3.44,1.54014 -3.44,3.44c0,1.89986 1.54014,3.44 3.44,3.44c1.89986,0 3.44,-1.54014 3.44,-3.44c0,-1.89986 -1.54014,-3.44 -3.44,-3.44zM25.8,101.48c-3.79972,0 -6.88,3.08028 -6.88,6.88c0,3.79972 3.08028,6.88 6.88,6.88c3.79972,0 6.88,-3.08028 6.88,-6.88c0,-3.79972 -3.08028,-6.88 -6.88,-6.88z" fill="#fbcd59"></path><path d="M43,146.2c-1.89986,0 -3.44,1.54014 -3.44,3.44c0,1.89986 1.54014,3.44 3.44,3.44c1.89986,0 3.44,-1.54014 3.44,-3.44c0,-1.89986 -1.54014,-3.44 -3.44,-3.44z" fill="#ee3e54"></path><path d="M31.82,87.72c-2.37482,0 -4.3,1.92518 -4.3,4.3c0,2.37482 1.92518,4.3 4.3,4.3c2.37482,0 4.3,-1.92518 4.3,-4.3c0,-2.37482 -1.92518,-4.3 -4.3,-4.3z" fill="#ffffff"></path><path d="M36.12,113.52c-0.94993,0 -1.72,0.77007 -1.72,1.72c0,0.94993 0.77007,1.72 1.72,1.72c0.94993,0 1.72,-0.77007 1.72,-1.72c0,-0.94993 -0.77007,-1.72 -1.72,-1.72z" fill="#f1bc19"></path><path d="M137.6,56.76c-0.94993,0 -1.72,0.77007 -1.72,1.72c0,0.94993 0.77007,1.72 1.72,1.72c0.94993,0 1.72,-0.77007 1.72,-1.72c0,-0.94993 -0.77007,-1.72 -1.72,-1.72z" fill="#ffffff"></path><path d="M86,44.72c-22.79831,0 -41.28,18.48169 -41.28,41.28c0,22.79831 18.48169,41.28 41.28,41.28c22.79831,0 41.28,-18.48169 41.28,-41.28c0,-22.79831 -18.48169,-41.28 -41.28,-41.28z" fill="#fffef4"></path><path d="M86,113.09c-14.9382,0 -27.09,-12.1518 -27.09,-27.09c0,-4.902 1.32268,-9.70424 3.82528,-13.88556c0.12212,-0.2064 0.387,-0.27004 0.58996,-0.14964c0.20468,0.12212 0.27004,0.387 0.14964,0.58996c-2.4252,4.0506 -3.70488,8.69976 -3.70488,13.44524c0,14.46348 11.76652,26.23 26.23,26.23c3.54148,0 6.97632,-0.69316 10.20992,-2.06056c0.2236,-0.09632 0.47128,0.01204 0.56416,0.22876c0.09288,0.22016 -0.01032,0.47128 -0.22876,0.56416c-3.34196,1.41212 -6.8886,2.12764 -10.54532,2.12764zM99.82364,109.23032c-0.14448,0 -0.28724,-0.07396 -0.36808,-0.2064c-0.12212,-0.20296 -0.05848,-0.46612 0.14448,-0.59168c2.55936,-1.55488 4.82116,-3.52256 6.7166,-5.84112c0.14964,-0.18404 0.41968,-0.20984 0.60544,-0.0602c0.18232,0.14964 0.21156,0.4214 0.0602,0.60544c-1.95908,2.39596 -4.2914,4.42556 -6.93504,6.03376c-0.07052,0.03956 -0.1462,0.0602 -0.2236,0.0602zM108.43568,100.83672c-0.08084,0 -0.16168,-0.02236 -0.23392,-0.0688c-0.1978,-0.12728 -0.25628,-0.39388 -0.12728,-0.59512c0.60716,-0.94084 1.15756,-1.93328 1.63916,-2.9498c0.10148,-0.215 0.35604,-0.30788 0.57276,-0.20296c0.21328,0.10148 0.30616,0.35776 0.20296,0.57276c-0.49708,1.04748 -1.0664,2.07432 -1.69248,3.04612c-0.08256,0.129 -0.22016,0.1978 -0.3612,0.1978zM111.19284,95.17104c-0.04644,0 -0.0946,-0.0086 -0.14104,-0.02408c-0.22532,-0.07912 -0.34228,-0.32336 -0.26488,-0.54696c0.95804,-2.75716 1.44308,-5.6502 1.44308,-8.6c0,-14.46348 -11.76652,-26.23 -26.23,-26.23c-4.36708,0 -8.69116,1.09564 -12.5044,3.16652c-0.2064,0.1118 -0.46956,0.03784 -0.58308,-0.17372c-0.1118,-0.20812 -0.03612,-0.46784 0.17372,-0.58308c3.93708,-2.13968 8.40392,-3.26972 12.91376,-3.26972c14.9382,0 27.09,12.1518 27.09,27.09c0,3.04612 -0.50052,6.03548 -1.48952,8.88208c-0.06192,0.17888 -0.22876,0.28896 -0.40764,0.28896z" fill="#472b29"></path><g fill="#472b29"><path d="M86,82.56c-1.89986,0 -3.44,1.54014 -3.44,3.44c0,1.89986 1.54014,3.44 3.44,3.44c1.89986,0 3.44,-1.54014 3.44,-3.44c0,-1.89986 -1.54014,-3.44 -3.44,-3.44z"></path></g><g fill="#472b29"><path d="M98.55256,94.17c-0.1462,0 -0.29412,-0.03612 -0.43,-0.11524l-11.91788,-6.88c-0.41108,-0.23736 -0.55212,-0.76196 -0.31476,-1.17476c0.23736,-0.41108 0.76368,-0.5504 1.17476,-0.31476l11.91788,6.88c0.41108,0.23736 0.55212,0.76196 0.31476,1.17476c-0.15824,0.2752 -0.44892,0.43 -0.74476,0.43z"></path></g><g fill="#472b29"><path d="M86,86.76712c-0.1462,0 -0.29412,-0.03612 -0.43,-0.11524c-0.41108,-0.23736 -0.55212,-0.76196 -0.31476,-1.17476l10.32,-17.87596c0.23736,-0.40936 0.76368,-0.55212 1.17476,-0.31476c0.41108,0.23736 0.55212,0.76196 0.31476,1.17476l-10.32,17.87596c-0.15824,0.2752 -0.44892,0.43 -0.74476,0.43z"></path></g><g fill="#472b29"><path d="M86.86,67.08c-0.47472,0 -0.86,-0.38528 -0.86,-0.86v-3.44c0,-0.47472 0.38528,-0.86 0.86,-0.86c0.47472,0 0.86,0.38528 0.86,0.86v3.44c0,0.47472 -0.38528,0.86 -0.86,0.86z"></path></g><g fill="#472b29"><path d="M86.86,110.08c-0.47472,0 -0.86,-0.38528 -0.86,-0.86v-3.44c0,-0.47472 0.38528,-0.86 0.86,-0.86c0.47472,0 0.86,0.38528 0.86,0.86v3.44c0,0.47472 -0.38528,0.86 -0.86,0.86z"></path></g><g fill="#472b29"><path d="M67.94,87.72h-3.44c-0.47472,0 -0.86,-0.38528 -0.86,-0.86c0,-0.47472 0.38528,-0.86 0.86,-0.86h3.44c0.47472,0 0.86,0.38528 0.86,0.86c0,0.47472 -0.38528,0.86 -0.86,0.86z"></path></g><g fill="#472b29"><path d="M109.22,87.72h-3.44c-0.47472,0 -0.86,-0.38528 -0.86,-0.86c0,-0.47472 0.38528,-0.86 0.86,-0.86h3.44c0.47472,0 0.86,0.38528 0.86,0.86c0,0.47472 -0.38528,0.86 -0.86,0.86z"></path></g><g><path d="M86,44.075c-10.707,0 -20.45596,4.04888 -27.83992,10.6812l-5.16172,-4.73172l0.03612,17.59388l17.48552,-0.10836l-5.81532,-6.21092c5.72244,-4.94328 13.13908,-7.97908 21.29532,-7.97908c18.04796,0 32.68,14.63204 32.68,32.68c0,18.04796 -14.63204,32.68 -32.68,32.68c-18.04796,0 -32.68,-14.63204 -32.68,-32.68c0,-4.24324 0.24768,-7.138 1.72,-10.85836h-9.63544c-1.1008,3.73928 -1.11456,6.54632 -1.11456,10.64336c0,23.03596 18.67404,41.71 41.71,41.71c23.03596,0 41.71,-18.67404 41.71,-41.71c0,-23.03596 -18.67404,-41.71 -41.71,-41.71z" fill="#0f3272"></path><path d="M86,128.699c-23.66376,0 -42.914,-19.25024 -42.914,-42.914c0,-4.07812 0,-7.0262 1.16444,-10.9822l0.25456,-0.86516h12.30488l-0.65016,1.64776c-1.38288,3.49504 -1.63572,6.24876 -1.63572,10.4146c0,17.35652 14.11948,31.476 31.476,31.476c17.35652,0 31.476,-14.11948 31.476,-31.476c0,-17.35652 -14.11948,-31.476 -31.476,-31.476c-7.07092,0 -13.96296,2.43552 -19.54436,6.88516l6.82668,7.28764l-21.45012,0.13072l-0.043,-21.54816l6.3898,5.86004c7.76924,-6.6306 17.60592,-10.2684 27.821,-10.2684c23.66376,0 42.914,19.25024 42.914,42.914c0,23.66376 -19.25024,42.914 -42.914,42.914zM46.32304,76.34736c-0.82732,3.21984 -0.82732,5.8738 -0.82732,9.43764c0,22.3342 18.17008,40.506 40.506,40.506c22.33592,0 40.506,-18.17008 40.506,-40.506c0,-22.33592 -18.17352,-40.506 -40.50772,-40.506c-9.9846,0 -19.58736,3.68424 -27.03668,10.3716l-0.81356,0.731l-3.94396,-3.61716l0.02752,13.64132l13.52436,-0.08428l-4.7902,-5.11528l0.94944,-0.82044c6.17652,-5.332 14.02144,-8.26976 22.08308,-8.26976c18.68264,0 33.884,15.20136 33.884,33.884c0,18.68264 -15.20136,33.884 -33.884,33.884c-18.68264,0 -33.884,-15.20136 -33.884,-33.884c0,-3.81496 0.20296,-6.54116 1.21088,-9.65264z" fill="#472b29"></path></g><g fill="#472b29"><path d="M105.3242,118.3016c-0.14448,0 -0.28724,-0.07396 -0.36808,-0.2064c-0.12212,-0.20296 -0.05848,-0.46612 0.14448,-0.59168c3.59308,-2.18268 6.76648,-4.94328 9.43076,-8.2044c0.14792,-0.18232 0.41796,-0.21156 0.60544,-0.0602c0.18232,0.14964 0.21156,0.4214 0.0602,0.60544c-2.72792,3.3368 -5.97528,6.16104 -9.6492,8.39532c-0.07052,0.043 -0.1462,0.06192 -0.2236,0.06192z"></path></g><g fill="#472b29"><path d="M117.36076,106.56948c-0.08084,0 -0.16168,-0.02236 -0.23392,-0.0688c-0.1978,-0.12728 -0.25628,-0.39388 -0.12728,-0.59512c0.84968,-1.31924 1.62368,-2.71244 2.30308,-4.14176c0.1032,-0.215 0.35432,-0.30616 0.57276,-0.20296c0.21328,0.10148 0.30616,0.35776 0.20296,0.57276c-0.69316,1.46372 -1.48608,2.8896 -2.3564,4.2398c-0.08084,0.12728 -0.22016,0.19608 -0.3612,0.19608z"></path></g><g fill="#472b29"><path d="M121.21872,98.64888c-0.04644,0 -0.0946,-0.00688 -0.14104,-0.02408c-0.2236,-0.0774 -0.34228,-0.32336 -0.26488,-0.54696c1.34332,-3.87688 2.02616,-7.94124 2.02616,-12.07784c0,-20.3132 -16.52404,-36.83724 -36.83724,-36.83724c-6.13352,0 -12.20512,1.53768 -17.55776,4.4462c-0.20812,0.1118 -0.46956,0.03612 -0.58308,-0.17372c-0.1118,-0.20812 -0.03612,-0.46784 0.17372,-0.58308c5.4782,-2.9756 11.69084,-4.55112 17.96712,-4.55112c20.7862,0 37.69724,16.91104 37.69724,37.69724c0,4.23464 -0.6966,8.39188 -2.0726,12.36164c-0.06364,0.17888 -0.23048,0.28896 -0.40764,0.28896z"></path></g></g></g></svg>