<svg xmlns="http://www.w3.org/2000/svg" x="0px" y="0px"
width="50" height="50"
viewBox="0 0 172 172"
style=" fill:#000000;"><g fill="none" fill-rule="nonzero" stroke="none" stroke-width="1" stroke-linecap="butt" stroke-linejoin="miter" stroke-miterlimit="10" stroke-dasharray="" stroke-dashoffset="0" font-family="none" font-weight="none" font-size="none" text-anchor="none" style="mix-blend-mode: normal"><path d="M0,172v-172h172v172z" fill="none"></path><g><path d="M132.44,20.64c-0.94993,0 -1.72,0.77007 -1.72,1.72c0,0.94993 0.77007,1.72 1.72,1.72c0.94993,0 1.72,-0.77007 1.72,-1.72c0,-0.94993 -0.77007,-1.72 -1.72,-1.72z" fill="#f1c40f"></path><path d="M86,22.36c-35.1474,0 -63.64,28.4926 -63.64,63.64c0,35.1474 28.4926,63.64 63.64,63.64c35.1474,0 63.64,-28.4926 63.64,-63.64c0,-35.1474 -28.4926,-63.64 -63.64,-63.64z" fill="#ffffff"></path><path d="M142.76,18.92c-3.79972,0 -6.88,3.08028 -6.88,6.88c0,3.79972 3.08028,6.88 6.88,6.88c3.79972,0 6.88,-3.08028 6.88,-6.88c0,-3.79972 -3.08028,-6.88 -6.88,-6.88z" fill="#f1c40f"></path><path d="M149.64,37.84c-1.89986,0 -3.44,1.54014 -3.44,3.44c0,1.89986 1.54014,3.44 3.44,3.44c1.89986,0 3.44,-1.54014 3.44,-3.44c0,-1.89986 -1.54014,-3.44 -3.44,-3.44z" fill="#ff0000"></path><path d="M139.32,127.28c-1.89986,0 -3.44,1.54014 -3.44,3.44c0,1.89986 1.54014,3.44 3.44,3.44c1.89986,0 3.44,-1.54014 3.44,-3.44c0,-1.89986 -1.54014,-3.44 -3.44,-3.44zM25.8,101.48c-3.79972,0 -6.88,3.08028 -6.88,6.88c0,3.79972 3.08028,6.88 6.88,6.88c3.79972,0 6.88,-3.08028 6.88,-6.88c0,-3.79972 -3.08028,-6.88 -6.88,-6.88z" fill="#cccccc"></path><path d="M43,146.2c-1.89986,0 -3.44,1.54014 -3.44,3.44c0,1.89986 1.54014,3.44 3.44,3.44c1.89986,0 3.44,-1.54014 3.44,-3.44c0,-1.89986 -1.54014,-3.44 -3.44,-3.44z" fill="#ff0000"></path><path d="M31.82,84.28c-2.37482,0 -4.3,1.92518 -4.3,4.3c0,2.37482 1.92518,4.3 4.3,4.3c2.37482,0 4.3,-1.92518 4.3,-4.3c0,-2.37482 -1.92518,-4.3 -4.3,-4.3zM136.74,55.04c-1.42489,0 -2.58,1.15511 -2.58,2.58c0,1.42489 1.15511,2.58 2.58,2.58c1.42489,0 2.58,-1.15511 2.58,-2.58c0,-1.42489 -1.15511,-2.58 -2.58,-2.58z" fill="#ffffff"></path><g><path d="M101.21168,117.40892h-47.52188c-3.29036,0 -5.98388,-2.70384 -5.98388,-6.0114v-56.0548c0,-3.41936 2.7864,-6.21952 6.19028,-6.21952h47.31376c7.955,0 14.46176,6.53944 14.46176,14.53056v39.2246c0.00172,7.99112 -6.50504,14.53056 -14.46004,14.53056z" fill="#9f8066"></path><path d="M101.20996,118.68h-47.52016c-3.99728,0 -7.2498,-3.268 -7.2498,-7.2842v-56.0548c0,-4.128 3.34712,-7.4906 7.4562,-7.4906h47.31376c8.67224,0 15.72768,7.08984 15.72768,15.80164v39.2246c0,8.71352 -7.05544,15.80336 -15.72768,15.80336zM53.8962,50.39428c-2.71588,0 -4.92436,2.2188 -4.92436,4.94844v56.0548c0,2.61268 2.11732,4.7386 4.71624,4.7386h47.52016c7.27732,0 13.19756,-5.94604 13.19756,-13.25948v-39.22288c0,-7.31 -5.91852,-13.25948 -13.19756,-13.25948z" fill="#472b29"></path><path d="M52.89172,85.01272c-0.32508,0 -0.58824,-0.26488 -0.58824,-0.58996v-24.9056c0,-3.18544 2.58,-5.77748 5.74996,-5.77748h42.06948c0.32508,0 0.58824,0.26488 0.58824,0.58996c0,0.32508 -0.26316,0.58996 -0.58824,0.58996h-42.0712c-2.52324,0 -4.57348,2.06228 -4.57348,4.59584v24.9056c0.00172,0.3268 -0.26316,0.59168 -0.58652,0.59168zM52.89172,96.5866c-0.32508,0 -0.58824,-0.26488 -0.58824,-0.58996v-4.63024c0,-0.3268 0.26316,-0.58996 0.58824,-0.58996c0.32336,0 0.58824,0.26488 0.58824,0.58996v4.63024c0,0.32508 -0.26488,0.58996 -0.58824,0.58996zM99.46932,112.789h-41.16476c-3.30928,0 -6.0028,-2.75544 -6.0028,-6.13868v-8.34028c0,-0.3268 0.26316,-0.58996 0.58824,-0.58996c0.32336,0 0.58824,0.26488 0.58824,0.58996v8.34028c0,2.73308 2.16376,4.95704 4.82632,4.95704h41.16476c5.75168,0 10.43352,-4.80224 10.43352,-10.70356v-21.11128c0,-0.3268 0.26316,-0.58996 0.58824,-0.58996c0.32336,0 0.58824,0.26488 0.58824,0.58996v21.113c-0.00172,6.55148 -5.2116,11.88348 -11.61,11.88348zM110.48936,73.43884c-0.32508,0 -0.58824,-0.26488 -0.58824,-0.58996v-4.63024c0,-0.3268 0.26316,-0.58996 0.58824,-0.58996c0.32336,0 0.58824,0.26488 0.58824,0.58996v4.63024c0,0.32508 -0.26316,0.58996 -0.58824,0.58996zM110.48936,66.4952c-0.32508,0 -0.58824,-0.26488 -0.58824,-0.58996v-2.3134c0,-0.3268 0.26316,-0.58996 0.58824,-0.58996c0.32336,0 0.58824,0.26488 0.58824,0.58996v2.3134c0,0.32508 -0.26316,0.58996 -0.58824,0.58996z" fill="#472b29"></path><path d="M120.86096,91.3664h-24.50656c-4.26216,0 -7.75204,-3.50536 -7.75204,-7.78816v-0.62608c0,-4.2828 3.48988,-7.78816 7.75204,-7.78816h25.01396c0.99072,0 1.79396,0.80668 1.79396,1.80256v12.08988c-0.00172,1.26936 -1.03544,2.30996 -2.30136,2.30996z" fill="#bd977c"></path><path d="M120.85924,92.04752h-24.50484c-4.64744,0 -8.42972,-3.79948 -8.42972,-8.46756v-0.6278c0,-4.6698 3.78228,-8.46928 8.42972,-8.46928h25.01396c1.36224,0 2.47164,1.11284 2.47164,2.48368v12.08988c0,1.64948 -1.33816,2.99108 -2.98076,2.99108zM96.3544,75.84512c-3.89924,0 -7.07436,3.18888 -7.07436,7.10704v0.6278c0,3.91816 3.17512,7.10532 7.07436,7.10532h24.50656c0.8944,0 1.62368,-0.731 1.62368,-1.62884v-12.08988c0,-0.61748 -0.50052,-1.12144 -1.11456,-1.12144h-25.01568z" fill="#472b29"></path><g><path d="M98.97052,80.9518c-1.27196,0 -2.30308,1.03574 -2.30308,2.3134c0,1.27766 1.03112,2.3134 2.30308,2.3134c1.27196,0 2.30308,-1.03574 2.30308,-2.3134c0,-1.27766 -1.03112,-2.3134 -2.30308,-2.3134z" fill="#fdfcee"></path><path d="M98.97052,86.172c-1.59444,0 -2.89304,-1.30376 -2.89304,-2.9068c0,-1.60132 1.2986,-2.9068 2.89304,-2.9068c1.59444,0 2.89304,1.30376 2.89304,2.9068c-0.00172,1.60304 -1.2986,2.9068 -2.89304,2.9068zM98.97052,81.54176c-0.946,0 -1.71484,0.774 -1.71484,1.72344c0,0.94944 0.77056,1.72344 1.71484,1.72344c0.94428,0 1.71484,-0.774 1.71484,-1.72344c0,-0.94944 -0.77056,-1.72344 -1.71484,-1.72344z" fill="#472b29"></path></g><g opacity="0.38"><path d="M62.42912,63.95648l7.568,7.60584" fill="none"></path><path d="M69.99884,72.15228c-0.14964,0 -0.29928,-0.05848 -0.41452,-0.17372l-7.57144,-7.60412c-0.22876,-0.23048 -0.22876,-0.60372 0,-0.8342c0.22876,-0.23048 0.60028,-0.23048 0.82904,0l7.57144,7.60412c0.22876,0.23048 0.22876,0.60372 0,0.8342c-0.11352,0.11524 -0.26316,0.17372 -0.41452,0.17372z" fill="#472b29"></path><path d="M66.21312,67.75768l-3.784,3.80464" fill="none"></path><path d="M62.42912,72.15228c-0.14964,0 -0.29928,-0.05848 -0.41452,-0.17372c-0.22876,-0.23048 -0.22876,-0.60372 0,-0.8342l3.78572,-3.8012c0.22876,-0.23048 0.60028,-0.23048 0.82904,0c0.22876,0.23048 0.22876,0.60372 0,0.8342l-3.78572,3.8012c-0.11524,0.11524 -0.26488,0.17372 -0.41452,0.17372z" fill="#472b29"></path><g><path d="M69.99712,63.95648l-1.75956,1.76988" fill="none"></path><path d="M68.23928,66.31632c-0.14964,0 -0.29928,-0.05848 -0.41452,-0.17372c-0.22876,-0.23048 -0.22876,-0.60372 0,-0.8342l1.76128,-1.76988c0.22876,-0.23048 0.60028,-0.23048 0.82904,0c0.22876,0.23048 0.22876,0.60372 0,0.8342l-1.76128,1.76988c-0.11524,0.11524 -0.26488,0.17372 -0.41452,0.17372z" fill="#472b29"></path></g></g><g opacity="0.38"><path d="M61.34208,93.51984l7.56972,7.60584" fill="none"></path><path d="M68.9118,101.71564c-0.14964,0 -0.29928,-0.05848 -0.41452,-0.17372l-7.57144,-7.60584c-0.22876,-0.23048 -0.22876,-0.60372 0,-0.8342c0.22876,-0.23048 0.60028,-0.23048 0.82904,0l7.57144,7.60584c0.22876,0.23048 0.22876,0.60372 0,0.8342c-0.11524,0.11524 -0.26488,0.17372 -0.41452,0.17372z" fill="#472b29"></path><path d="M65.12608,97.32276l-3.784,3.80292" fill="none"></path><path d="M61.34036,101.71564c-0.14964,0 -0.29928,-0.05848 -0.41452,-0.17372c-0.22876,-0.23048 -0.22876,-0.60372 0,-0.8342l3.78572,-3.80292c0.22876,-0.23048 0.60028,-0.23048 0.82904,0c0.22876,0.23048 0.22876,0.60372 0,0.8342l-3.78572,3.80292c-0.11524,0.11524 -0.26488,0.17372 -0.41452,0.17372z" fill="#472b29"></path><g><path d="M68.9118,93.51984l-1.76128,1.76988" fill="none"></path><path d="M67.15052,95.87968c-0.14964,0 -0.29928,-0.05848 -0.41452,-0.17372c-0.22876,-0.22876 -0.22876,-0.60372 0,-0.8342l1.76128,-1.7716c0.22876,-0.23048 0.60028,-0.23048 0.82904,0c0.22876,0.22876 0.22876,0.60372 0,0.8342l-1.76128,1.7716c-0.11524,0.11524 -0.26488,0.17372 -0.41452,0.17372z" fill="#472b29"></path></g></g><g opacity="0.38"><path d="M82.00272,63.95648l7.56972,7.60584" fill="none"></path><path d="M89.57244,72.15228c-0.14964,0 -0.29928,-0.05848 -0.41452,-0.17372l-7.56972,-7.60412c-0.22876,-0.23048 -0.22876,-0.60372 0,-0.8342c0.22876,-0.23048 0.60028,-0.23048 0.82904,0l7.56972,7.60412c0.22876,0.23048 0.22876,0.60372 0,0.8342c-0.11352,0.11524 -0.26488,0.17372 -0.41452,0.17372z" fill="#472b29"></path><path d="M85.78844,67.75768l-3.78572,3.80464" fill="none"></path><path d="M82.00272,72.15228c-0.14964,0 -0.29928,-0.05848 -0.41452,-0.17372c-0.22876,-0.23048 -0.22876,-0.60372 0,-0.8342l3.78572,-3.8012c0.22876,-0.23048 0.60028,-0.23048 0.82904,0c0.22876,0.23048 0.22876,0.60372 0,0.8342l-3.78572,3.8012c-0.11352,0.11524 -0.26316,0.17372 -0.41452,0.17372z" fill="#472b29"></path><g><path d="M89.57244,63.95648l-1.76128,1.76988" fill="none"></path><path d="M87.81116,66.31632c-0.14964,0 -0.29928,-0.05848 -0.41452,-0.17372c-0.22876,-0.23048 -0.22876,-0.60372 0,-0.8342l1.76128,-1.76988c0.22876,-0.23048 0.60028,-0.23048 0.82904,0c0.22876,0.23048 0.22876,0.60372 0,0.8342l-1.76128,1.76988c-0.11352,0.11524 -0.26316,0.17372 -0.41452,0.17372z" fill="#472b29"></path></g></g><g opacity="0.38"><path d="M80.91568,93.51984l7.57144,7.60584" fill="none"></path><path d="M88.48712,101.71564c-0.14964,0 -0.29928,-0.05848 -0.41452,-0.17372l-7.57144,-7.60584c-0.22876,-0.23048 -0.22876,-0.60372 0,-0.8342c0.22876,-0.23048 0.60028,-0.23048 0.82904,0l7.57144,7.60584c0.22876,0.23048 0.22876,0.60372 0,0.8342c-0.11524,0.11524 -0.26488,0.17372 -0.41452,0.17372z" fill="#472b29"></path><path d="M84.7014,97.32276l-3.78572,3.80292" fill="none"></path><path d="M80.9174,101.71564c-0.14964,0 -0.29928,-0.05848 -0.41452,-0.17372c-0.22876,-0.23048 -0.22876,-0.60372 0,-0.8342l3.78572,-3.80292c0.22876,-0.23048 0.60028,-0.23048 0.82904,0c0.22876,0.23048 0.22876,0.60372 0,0.8342l-3.78572,3.80292c-0.11524,0.11524 -0.26488,0.17372 -0.41452,0.17372z" fill="#472b29"></path><g><path d="M88.48712,93.51984l-1.76128,1.76988" fill="none"></path><path d="M86.72412,95.87968c-0.14964,0 -0.29928,-0.05848 -0.41452,-0.17372c-0.22876,-0.23048 -0.22876,-0.60372 0,-0.8342l1.763,-1.7716c0.22876,-0.23048 0.60028,-0.23048 0.82904,0c0.22876,0.23048 0.22876,0.60372 0,0.8342l-1.763,1.7716c-0.11524,0.11524 -0.26488,0.17372 -0.41452,0.17372z" fill="#472b29"></path></g></g><g><path d="M95.21748,42.22944l-0.81528,-3.64124l-42.97248,9.95536l49.49644,-6.84732l2.23772,6.84732l-51.42456,0.60716" fill="#b8dcfa"></path><path d="M51.73932,49.74068c-0.32164,0 -0.58308,-0.26144 -0.58824,-0.58308c0,-0.03096 0.00172,-0.06192 0.00688,-0.09116c-0.1548,-0.08256 -0.27176,-0.2322 -0.30616,-0.41624c-0.05676,-0.31132 0.13932,-0.6106 0.44548,-0.68112l42.97248,-9.95364c0.15308,-0.03612 0.31476,-0.00688 0.44548,0.07396c0.13244,0.08428 0.22532,0.21844 0.26144,0.3698l0.75164,3.3626l5.12044,-0.71036c0.27864,-0.03268 0.5504,0.129 0.63812,0.40076l2.23772,6.84732c0.05848,0.1806 0.02924,0.37496 -0.07912,0.52804c-0.11008,0.15308 -0.2838,0.24596 -0.47128,0.24768l-51.42456,0.60716c-0.00516,-0.00172 -0.0086,-0.00172 -0.01032,-0.00172zM100.51852,42.34984l-44.5394,6.16104l46.37464,-0.54696zM93.95672,39.29684l-29.65108,6.86968l30.25136,-4.18476z" fill="#472b29"></path></g></g><g><path d="M97.34684,107.36756c-6.72075,0 -12.169,5.41282 -12.169,12.08988c0,6.67706 5.44825,12.08988 12.169,12.08988c6.72075,0 12.169,-5.41282 12.169,-12.08988c0,-6.67706 -5.44825,-12.08988 -12.169,-12.08988z" fill="#cccccc"></path><path d="M97.34512,132.44c-7.20508,0 -13.06512,-5.82392 -13.06512,-12.98256c0,-7.15864 5.86176,-12.98084 13.06512,-12.98084c7.20336,0 13.06684,5.82392 13.06684,12.98084c0,7.15692 -5.86176,12.98256 -13.06684,12.98256zM97.34512,108.2568c-6.21608,0 -11.27288,5.02412 -11.27288,11.20064c0,6.17824 5.0568,11.20236 11.27288,11.20236c6.2178,0 11.2746,-5.02412 11.2746,-11.20236c0,-6.17652 -5.0568,-11.20064 -11.2746,-11.20064z" fill="#472b29"></path><path d="M97.34684,111.5506c-4.39533,0 -7.95844,3.54001 -7.95844,7.90684c0,4.36683 3.56311,7.90684 7.95844,7.90684c4.39533,0 7.95844,-3.54001 7.95844,-7.90684c0,-4.36683 -3.56311,-7.90684 -7.95844,-7.90684z" fill="#f1c40f"></path><path d="M97.34512,127.80976c-4.63368,0 -8.40392,-3.74616 -8.40392,-8.3506c0,-4.60444 3.77024,-8.3506 8.40392,-8.3506c4.63368,0 8.40392,3.74616 8.40392,8.3506c0,4.60444 -3.77024,8.3506 -8.40392,8.3506zM97.34512,111.9978c-4.14176,0 -7.5078,3.34712 -7.5078,7.45964c0,4.11252 3.36948,7.45964 7.5078,7.45964c4.14004,0 7.5078,-3.34712 7.5078,-7.45964c0,-4.11252 -3.36604,-7.45964 -7.5078,-7.45964z" fill="#472b29"></path><g><path d="M117.65488,97.21268c-6.72075,0 -12.169,5.41282 -12.169,12.08988c0,6.67706 5.44825,12.08988 12.169,12.08988c6.72075,0 12.169,-5.41282 12.169,-12.08988c0,-6.67706 -5.44825,-12.08988 -12.169,-12.08988z" fill="#cccccc"></path><path d="M117.65316,122.2834c-7.20508,0 -13.06512,-5.82392 -13.06512,-12.98084c0,-7.15692 5.86176,-12.98256 13.06512,-12.98256c7.20336,0 13.06684,5.82392 13.06684,12.98256c0,7.15864 -5.86176,12.98084 -13.06684,12.98084zM117.65316,98.1002c-6.21608,0 -11.27288,5.02412 -11.27288,11.20236c0,6.17652 5.0568,11.20064 11.27288,11.20064c6.2178,0 11.2746,-5.02412 11.2746,-11.20064c0,-6.17824 -5.0568,-11.20236 -11.2746,-11.20236z" fill="#472b29"></path></g><g><path d="M117.65488,101.39572c-4.39533,0 -7.95844,3.54001 -7.95844,7.90684c0,4.36683 3.56311,7.90684 7.95844,7.90684c4.39533,0 7.95844,-3.54001 7.95844,-7.90684c0,-4.36683 -3.56311,-7.90684 -7.95844,-7.90684z" fill="#f1c40f"></path><path d="M117.65316,117.65316c-4.63368,0 -8.40392,-3.74616 -8.40392,-8.3506c0,-4.60444 3.77024,-8.3506 8.40392,-8.3506c4.63368,0 8.40392,3.74616 8.40392,8.3506c0,4.60444 -3.77024,8.3506 -8.40392,8.3506zM117.65316,101.84292c-4.14176,0 -7.5078,3.34712 -7.5078,7.45964c0,4.11252 3.36948,7.45964 7.5078,7.45964c4.14004,0 7.5078,-3.34712 7.5078,-7.45964c0,-4.11252 -3.36604,-7.45964 -7.5078,-7.45964z" fill="#472b29"></path></g><g fill="#472b29"><path d="M116.43712,111.41472c0.01032,0 0.03268,0.01032 0.06708,0.03268l-0.01548,-0.0086c0.15996,0.10836 0.30272,0.19608 0.42828,0.258c0.12728,0.06192 0.26144,0.10664 0.40248,0.13588v-2.5456l-0.14792,-0.08084c-0.1806,-0.09804 -0.35432,-0.20124 -0.51944,-0.31132c-0.16512,-0.11008 -0.31304,-0.23048 -0.44376,-0.35948c-0.13244,-0.13072 -0.24424,-0.27004 -0.33368,-0.41624c-0.09116,-0.14792 -0.15308,-0.30788 -0.18576,-0.48332c-0.02236,-0.08772 -0.0344,-0.16856 -0.03784,-0.24596c-0.00344,-0.0774 -0.00344,-0.15824 -0.00344,-0.24596c0,-0.25628 0.043,-0.47988 0.12728,-0.6708c0.086,-0.19092 0.20296,-0.35432 0.35088,-0.48848c0.14792,-0.13416 0.32508,-0.2408 0.52632,-0.31992c0.20296,-0.07912 0.42656,-0.13244 0.66736,-0.15824v-0.23048c0,-0.10836 0.0258,-0.20124 0.07568,-0.27692c0.04988,-0.0774 0.13932,-0.11352 0.27176,-0.11352h0.0344c0.28552,0 0.44204,0.13932 0.46956,0.41624l-0.0086,0.21844c0.1548,0.02752 0.31132,0.0688 0.473,0.12556c0.1634,0.05676 0.344,0.13072 0.54868,0.21672l-0.02408,-0.01548c0.09288,0.03268 0.16512,0.07224 0.21844,0.12212c0.05332,0.04988 0.08428,0.129 0.0946,0.23736v0.04988c0,0.03956 -0.01032,0.08772 -0.02924,0.14792c-0.01892,0.0602 -0.04816,0.11696 -0.086,0.172c-0.03956,0.05504 -0.08256,0.1032 -0.13244,0.14276c-0.04988,0.04128 -0.1032,0.06192 -0.16512,0.06192c-0.04988,0 -0.0946,-0.00516 -0.13588,-0.01204c-0.04128,-0.00688 -0.08944,-0.03268 -0.14276,-0.0688v0.00688l-0.09116,-0.04988c-0.15996,-0.08256 -0.3354,-0.14792 -0.52632,-0.19608v2.23428l0.03268,0.01548c0.44376,0.2236 0.78776,0.47128 1.03028,0.74476c0.24252,0.27176 0.40076,0.55556 0.47816,0.8514c0.03268,0.12384 0.05504,0.2408 0.07052,0.344c0.01376,0.1032 0.02064,0.20984 0.02064,0.3182c0,0.25112 -0.04128,0.47644 -0.12384,0.6794c-0.08256,0.20124 -0.19608,0.37668 -0.33712,0.52804c-0.14276,0.14964 -0.31304,0.27176 -0.51428,0.36808c-0.20124,0.09632 -0.41968,0.15996 -0.65532,0.19264v0.58996c0,0.10836 -0.02064,0.20124 -0.06708,0.27692c-0.043,0.0774 -0.13416,0.11352 -0.27176,0.11352h-0.04988c-0.1376,0 -0.24768,-0.03784 -0.33024,-0.11008c-0.08256,-0.07224 -0.12384,-0.18232 -0.12384,-0.32164v-0.54868c-0.29584,-0.03268 -0.55212,-0.09804 -0.7654,-0.19608c-0.215,-0.09804 -0.43344,-0.22016 -0.65876,-0.36808c-0.0602,-0.04816 -0.10148,-0.09632 -0.12384,-0.13932c-0.02236,-0.043 -0.04644,-0.1032 -0.07396,-0.1806v-0.04988c0,-0.04816 0.01376,-0.10492 0.04472,-0.16684c0.03096,-0.06364 0.06708,-0.12212 0.1118,-0.1806c0.04472,-0.05676 0.09116,-0.10664 0.13932,-0.14792c0.04988,-0.04128 0.09632,-0.0602 0.13932,-0.0602c0.0602,0 0.11524,0.0172 0.16168,0.05332c0.04644,0.03612 0.09116,0.07052 0.13588,0.11008l0.00344,0.00344c0.01032,0.00516 0.0172,0.00688 0.02408,0.00688zM116.85852,107.93516c0.129,0.11868 0.28208,0.22532 0.45752,0.3182v-1.79224c-0.20812,0.04472 -0.38356,0.129 -0.52288,0.25456c-0.13932,0.12556 -0.20984,0.29584 -0.20984,0.5074c0,0.03268 0.00172,0.0688 0.00344,0.10664c0.00344,0.03784 0.0086,0.086 0.02236,0.13932c0.03956,0.19092 0.1204,0.34572 0.2494,0.46612zM118.55272,110.09204c-0.11008,-0.13416 -0.24252,-0.2494 -0.3956,-0.34744v2.0382c0.19092,-0.0774 0.3526,-0.19436 0.4816,-0.3526c0.129,-0.15824 0.19436,-0.344 0.19436,-0.55556c0,-0.0602 -0.00516,-0.11352 -0.01548,-0.1634c-0.01032,-0.04988 -0.02064,-0.10148 -0.03268,-0.15652c-0.04644,-0.17544 -0.12212,-0.32852 -0.2322,-0.46268z"></path></g><g fill="#472b29"><path d="M96.06544,121.57132c0.01032,0 0.03268,0.01032 0.06708,0.03268l-0.01548,-0.0086c0.15996,0.10836 0.30272,0.19608 0.42828,0.258c0.12728,0.06192 0.26144,0.10664 0.40248,0.13588v-2.5456l-0.14792,-0.08256c-0.1806,-0.09804 -0.35432,-0.20124 -0.51944,-0.31132c-0.16512,-0.11008 -0.31304,-0.23048 -0.44376,-0.35948c-0.13244,-0.13072 -0.24424,-0.27004 -0.33368,-0.41624c-0.09116,-0.14792 -0.15308,-0.30788 -0.18576,-0.48332c-0.02236,-0.08772 -0.0344,-0.16856 -0.03784,-0.24596c-0.00172,-0.0774 -0.00344,-0.15824 -0.00344,-0.24596c0,-0.25628 0.043,-0.47988 0.12728,-0.6708c0.086,-0.19092 0.20296,-0.35432 0.35088,-0.48848c0.14792,-0.13416 0.32508,-0.2408 0.52632,-0.31992c0.20296,-0.07912 0.42656,-0.13244 0.66736,-0.15824v-0.23048c0,-0.10836 0.0258,-0.20124 0.07568,-0.27692c0.04988,-0.0774 0.13932,-0.11352 0.27176,-0.11352h0.0344c0.28552,0 0.44204,0.13932 0.46956,0.41624l-0.00688,0.22016c0.1548,0.02752 0.31132,0.0688 0.473,0.12556c0.1634,0.05676 0.344,0.13072 0.54868,0.21672l-0.02408,-0.01548c0.09288,0.03268 0.16512,0.07224 0.21844,0.12212c0.0516,0.04988 0.08428,0.129 0.0946,0.23736v0.04988c0,0.03956 -0.01032,0.08772 -0.02924,0.14792c-0.01892,0.0602 -0.04816,0.11696 -0.086,0.172c-0.03956,0.05504 -0.08256,0.1032 -0.13244,0.14276c-0.04988,0.04128 -0.1032,0.06192 -0.16512,0.06192c-0.04988,0 -0.0946,-0.00516 -0.13588,-0.01204c-0.04128,-0.00688 -0.08944,-0.03268 -0.14276,-0.0688v0.00688l-0.09116,-0.04988c-0.15996,-0.08256 -0.3354,-0.14792 -0.52632,-0.19608v2.23428l0.03268,0.01548c0.44376,0.2236 0.78776,0.47128 1.03028,0.74476c0.24252,0.27348 0.40076,0.55556 0.47816,0.8514c0.03268,0.12384 0.05504,0.2408 0.07052,0.344c0.01204,0.1032 0.02236,0.20984 0.02236,0.3182c0,0.25112 -0.04128,0.47644 -0.12384,0.6794c-0.08256,0.20124 -0.19608,0.37668 -0.33712,0.52804c-0.14276,0.14964 -0.31476,0.27176 -0.51428,0.36808c-0.20124,0.09632 -0.41968,0.15996 -0.65532,0.19264v0.58996c0,0.10836 -0.02236,0.20124 -0.06708,0.27692c-0.043,0.0774 -0.13416,0.11352 -0.27176,0.11352h-0.05504c-0.1376,0 -0.24768,-0.03784 -0.33024,-0.11008c-0.08256,-0.07396 -0.12384,-0.18232 -0.12384,-0.32164v-0.54868c-0.29584,-0.03268 -0.55212,-0.09804 -0.7654,-0.19608c-0.215,-0.09804 -0.43344,-0.22016 -0.65876,-0.36808c-0.0602,-0.04816 -0.10148,-0.09632 -0.12384,-0.13932c-0.02236,-0.043 -0.04644,-0.1032 -0.07396,-0.1806v-0.04988c0,-0.04816 0.01376,-0.10492 0.04472,-0.16684c0.03096,-0.06364 0.06708,-0.12212 0.1118,-0.1806c0.04472,-0.05848 0.09116,-0.10664 0.13932,-0.14792c0.04988,-0.04128 0.09632,-0.0602 0.13932,-0.0602c0.0602,0 0.11524,0.0172 0.16168,0.05332c0.04644,0.03612 0.09116,0.07052 0.13588,0.11008l0.00516,0.00344c0.01032,0.00516 0.0172,0.00688 0.02408,0.00688zM96.48856,118.09004c0.129,0.11868 0.28208,0.22532 0.45752,0.3182v-1.79224c-0.20812,0.04472 -0.38356,0.129 -0.52288,0.25456c-0.13932,0.12556 -0.20984,0.29584 -0.20984,0.5074c0,0.03268 0.00172,0.0688 0.00344,0.10664c0.00172,0.03784 0.0086,0.086 0.02236,0.13932c0.03784,0.19264 0.1204,0.34744 0.2494,0.46612zM98.18276,120.24864c-0.11008,-0.13416 -0.24252,-0.2494 -0.3956,-0.34744v2.0382c0.19092,-0.0774 0.3526,-0.19436 0.4816,-0.3526c0.129,-0.15824 0.19436,-0.344 0.19436,-0.55556c0,-0.0602 -0.00516,-0.11352 -0.01548,-0.1634c-0.01032,-0.04988 -0.02236,-0.10148 -0.03268,-0.15652c-0.04644,-0.17544 -0.12384,-0.33024 -0.2322,-0.46268z"></path></g></g></g></g></svg>